<?xml version="1.0" encoding="UTF-8"?>
<svg id="Layer_2" data-name="Layer 2" xmlns="http://www.w3.org/2000/svg" viewBox="0 0 1234.40293 194.025">
  <defs>
    <style>
      .cls-1 {
        fill: #fff;
        stroke-width: 0px;
      }
    </style>
  </defs>
  <g id="Layer_1-2" data-name="Layer 1">
    <g>
      <g>
        <path class="cls-1" d="M98.4896,22.3009C88.2521,8.33669,71.81167,0,54.5124,0,24.45435,0,0,24.45403,0,54.5124c0,17.29958,8.33638,33.7397,22.30059,43.97688,9.39009,6.8926,20.52896,10.53584,32.21182,10.53584h19.5127v-24.02524h-19.5127c-16.8105,0-30.48716-13.67666-30.48716-30.48748s13.67666-30.48748,30.48716-30.48748c12.78926,0,24.24741,8.02312,28.62285,20.0002h24.879c-1.51772-7.79683-4.80391-15.29658-9.52466-21.72422Z"/>
        <path class="cls-1" d="M171.72441,95.53572v-.00032c-9.39009-6.89229-20.52896-10.53552-32.21182-10.53552h-19.5127v24.02524h19.5127c16.8105,0,30.48716,13.67666,30.48716,30.48748s-13.67666,30.48748-30.48716,30.48748-30.48779-13.67666-30.48779-30.48748V54.9999h-24.02461v84.5127c0,11.68381,3.64292,22.82236,10.53521,32.2115,10.2375,13.96421,26.67793,22.3009,43.9772,22.3009,30.05806,0,54.5124-24.45403,54.5124-54.5124,0-17.29958-8.33638-33.7397-22.30059-43.97688Z"/>
      </g>
      <g>
        <path class="cls-1" d="M996.94443,67.76616c-7.69531-4.74585-16.7793-7.1521-27-7.1521-10.36963,0-19.64111,2.37109-27.55713,7.04761-7.91406,4.67749-14.18652,11.35229-18.64355,19.83911-4.46631,8.50098-6.73047,18.51636-6.73047,29.76758,0,11.25635,2.26465,21.30884,6.73096,29.87817,4.45801,8.56152,10.83936,15.27124,18.9668,19.94312,8.13379,4.67871,17.59131,7.05078,28.10938,7.05078,7.63867,0,14.79639-1.31445,21.27441-3.90649,6.47168-2.58813,12.04834-6.30542,16.57568-11.04907,4.27051-4.47266,7.60352-10.37231,9.4292-16.67236l-20.92285.00049c-1.98291,3.25171-4.70801,6.16479-8.104,8.66211-5.02783,3.69653-11.16895,5.5708-18.25244,5.5708-9.58984,0-17.3374-3.03613-23.02734-9.02368-5.5918-5.88159-8.39355-13.0293-9.08496-23.17578l-.03613-.53394h82.2124c.0957-1.81348.23926-5.46338.23926-7.18262,0-10.96509-2.11914-20.79956-6.29785-29.22998-4.17432-8.41602-10.19043-15.08911-17.88135-19.83374ZM998.879,107.5125h-59.99316l.07275-.56421c1.01025-7.81226,4.43896-15.30151,9.17139-20.03345,5.61914-5.61938,12.88525-8.46875,21.5957-8.46875,8.56494,0,15.61084,2.77686,20.94238,8.25366,4.5293,4.65796,7.94775,12.61157,8.7085,20.26318l.05469.54956h-.55225Z"/>
        <path class="cls-1" d="M1109.4957,67.76616c-7.69531-4.74585-16.7793-7.1521-27-7.1521-10.36914,0-19.64062,2.37109-27.55762,7.04761-7.91309,4.67749-14.18652,11.35229-18.64355,19.83911-4.46582,8.50073-6.73047,18.51611-6.73047,29.76758,0,11.25659,2.26465,21.30908,6.73145,29.87817,4.45801,8.56152,10.83887,15.27124,18.9668,19.94312,8.13379,4.67871,17.59082,7.05078,28.10938,7.05078,7.63867,0,14.79688-1.31445,21.27441-3.90649,6.47168-2.58813,12.04883-6.30542,16.57617-11.04907,4.27051-4.47266,7.60254-10.37231,9.42871-16.67236l-20.92285.00049c-1.9834,3.25171-4.70801,6.16479-8.10449,8.66211-5.02734,3.69653-11.16797,5.5708-18.25195,5.5708-9.58984,0-17.33789-3.03613-23.02734-9.02368-5.59277-5.88135-8.39453-13.02905-9.08496-23.17578l-.03613-.53394h82.21191c.0957-1.81348.23926-5.46338.23926-7.18262,0-10.96484-2.11914-20.79932-6.29785-29.22998-4.17383-8.41602-10.19043-15.08911-17.88086-19.83374ZM1111.43027,107.5125h-59.99316l.07227-.56421c1.01074-7.81177,4.43848-15.30103,9.17188-20.03345,5.61914-5.61938,12.88477-8.46875,21.5957-8.46875,8.56543,0,15.61133,2.77686,20.94238,8.25366,4.5293,4.65723,7.94727,12.61108,8.70801,20.26318l.05469.54956h-.55176Z"/>
        <path class="cls-1" d="M879.66172,93.27324l-.40381-.0791v-2.30981l.33887-.11523c7.45947-2.53564,13.34717-6.64868,17.5-12.2251,4.14795-5.57007,6.25098-12.18188,6.25098-19.65161,0-6.90625-1.84863-13.16113-5.49512-18.59106-3.65869-5.43921-8.896-9.77124-15.56592-12.87549-6.70801-3.12183-14.63184-4.7749-23.55273-4.91333h-63.59619v79h60.31982c8.98291,0,16.2002,2.24683,21.45215,6.67798,5.27393,4.45898,7.94775,10.75464,7.94775,18.71216,0,7.80811-2.67188,14.09863-7.94141,18.69653-5.24512,4.58716-13.05371,6.91333-23.2085,6.91333h-37.06982v-40h-21.5v59h64.91992c9.3667,0,17.80029-1.84937,25.06592-5.49683,7.25977-3.64453,12.97656-8.69849,16.99219-15.02124,4.01562-6.33838,6.05176-13.677,6.05176-21.81201,0-9.59546-2.72217-17.66553-8.09082-23.98633-5.38086-6.31348-12.24951-10.3252-20.41504-11.92285ZM873.06504,76.77715c-4.89209,3.80566-11.7749,5.73535-20.45752,5.73535h-35.96973v-41h35.52979c8.96436,0,15.98779,1.72241,20.87549,5.11938,4.93311,3.42871,7.43457,8.43506,7.43457,14.88062,0,6.302-2.49414,11.43774-7.4126,15.26465Z"/>
        <path class="cls-1" d="M1229.37461,121.96855c-3.36133-4.00195-7.19824-6.86353-11.40527-8.50488-4.24121-1.65088-8.79785-2.85498-13.54199-3.5791h-.43652l-.03516-.00513-24.30664-3.50391c-4.29199-.58887-7.97754-1.98218-10.95215-4.14111-3.04297-2.20166-4.58594-5.46924-4.58594-9.71118,0-5.12817,2.29199-9.10327,6.8125-11.81543,4.43848-2.66333,9.8291-4.01367,16.02344-4.01367,6.19531,0,11.51855,1.42749,15.82129,4.24268,3.88184,2.54443,6.71777,6.10107,8.43359,10.57568l20.93457-.00049c-1.06543-6.37354-4.73828-14.00122-8.87305-18.35229-4.08398-4.29932-9.25-7.60962-15.35645-9.83862-6.12695-2.23169-12.95801-3.36328-20.30273-3.36328-8.65234,0-16.43359,1.42334-23.12793,4.23071-6.66797,2.7959-11.90137,6.79102-15.55371,11.87451-3.64355,5.07251-5.49023,11.05249-5.49023,17.77368,0,7.72095,2.46094,14.31177,7.31348,19.58936,4.85742,5.28931,11.75684,8.62549,20.50781,9.91602l25.80371,3.71753c.4541.00391.79785.08423,1.04199.24365,4.80176.7417,8.58105,1.97485,11.2334,3.6665,2.76953,1.77148,4.17285,4.82373,4.17285,9.07202,0,5.25049-2.31445,9.6582-6.87793,13.10034-4.52051,3.40869-10.55273,5.13696-17.92871,5.13696-7.66406,0-14.02539-1.80054-18.90723-5.35156-3.99707-2.90601-6.74707-6.40869-8.17969-10.41479l-20.93066.00049c.90137,5.69116,3.64453,11.87231,7.23633,16.2627,3.87402,4.73608,9.22754,8.63013,15.90918,11.57397,6.69824,2.95142,14.77148,4.44775,23.99609,4.44775,8.79004,0,16.8291-1.4978,23.89551-4.45142,7.0332-2.94141,12.63477-7.23169,16.64941-12.75195,4.00488-5.50757,6.03516-11.92896,6.03516-19.08569,0-6.99487-1.69238-12.55981-5.02832-16.54004Z"/>
        <rect class="cls-1" x="393.64805" y="22.5125" width="21.5" height="149"/>
        <path class="cls-1" d="M513.4166,67.77324c-8.20605-4.75049-17.69922-7.15918-28.21631-7.15918-10.66455,0-20.26953,2.40894-28.54688,7.16016-8.27393,4.74707-14.84082,11.49683-19.51807,20.06201-4.68213,8.57007-7.05615,18.47266-7.05615,29.43213,0,11.10522,2.37354,21.04395,7.05518,29.54004,4.67334,8.49023,11.24023,15.20337,19.51904,19.95312,8.27637,4.75049,17.88086,7.15918,28.54688,7.15918,10.51807,0,20.01172-2.40845,28.21631-7.1582,8.20117-4.7478,14.73145-11.49805,19.41016-20.06299,4.68213-8.57324,7.05615-18.47534,7.05615-29.43115,0-10.95264-2.37402-20.85498-7.05615-29.43237-4.68164-8.56641-11.21191-15.31665-19.41016-20.06274ZM514.44297,137.6375c-2.87598,5.7522-6.91748,10.24121-12.01221,13.34204-5.09277,3.09985-10.96387,4.67163-17.44971,4.67163-6.34033,0-12.1377-1.57178-17.23096-4.67163-5.09424-3.10059-9.13525-7.58936-12.01172-13.34204-2.86865-5.73657-4.32324-12.51611-4.32324-20.15039,0-7.77686,1.4541-14.6665,4.32227-20.47705,2.87646-5.82666,6.91846-10.35327,12.0127-13.45386,5.0918-3.09985,10.88916-4.67163,17.23096-4.67163,6.4873,0,12.3584,1.57178,17.4502,4.67163,5.09424,3.10107,9.13623,7.62744,12.0127,13.45361,2.86768,5.81128,4.32178,12.70068,4.32178,20.47729,0,7.63403-1.45459,14.41357-4.32275,20.15039Z"/>
        <path class="cls-1" d="M629.56846,120.99102c0,10.28564-2.65332,18.75391-7.88574,25.16943-5.25879,6.44287-12.42529,9.70947-21.30078,9.70947-8.73779,0-15.20801-2.68164-19.22998-7.9707-3.99072-5.24438-6.01416-11.94019-6.01416-19.90137V62.5125h-21.33594v70.74023c0,12.50708,3.59961,22.55737,10.69824,29.87158,7.09424,7.30981,16.80957,11.01611,28.875,11.01611,8.47314,0,15.63867-1.85181,21.29834-5.50415,5.65625-3.65234,9.97803-8.70142,12.84521-15.00659l.1333-.29297h1.9165v18.17578h21.5V62.5125h-21.5v58.47852Z"/>
        <path class="cls-1" d="M752.63486,80.69805v.5h-1.90381l-.13818-.27637c-2.72021-5.4375-7.15332-10.12256-13.17725-13.9248-6.02539-3.79907-13.45068-5.72559-22.06885-5.72559-9.34766,0-17.84033,2.40454-25.2417,7.14648-7.40625,4.74512-13.27686,11.41968-17.44873,19.83813-4.17969,8.42651-6.29883,18.1875-6.29883,29.01245,0,10.82324,2.15576,20.65747,6.40771,29.22998,4.24365,8.56396,10.15137,15.31177,17.55908,20.05591,7.39941,4.74292,15.8916,7.14771,25.24121,7.14771,8.33301,0,15.68701-1.89136,21.8584-5.62134,6.16406-3.72778,10.59326-8.37061,13.16455-13.7998l.13525-.28589h1.91113v17.51758h21.5V22.5125h-21.5v58.18555ZM748.63828,137.86064c-2.94971,5.74854-6.95117,10.23486-11.89453,13.33521-4.95215,3.10156-10.604,4.67407-16.79834,4.67407-6.06006,0-11.604-1.61133-16.47754-4.78931-4.87451-3.17456-8.76514-7.69897-11.56396-13.448-2.79395-5.73315-4.21045-12.58496-4.21045-20.36426,0-11.3103,3.02441-20.55615,8.98926-27.48071,5.98584-6.94385,13.8125-10.4646,23.2627-10.4646,6.19629,0,11.88379,1.57202,16.90527,4.67212,5.02148,3.104,9.02539,7.62988,11.90039,13.45215,2.86816,5.81274,4.32227,12.62866,4.32227,20.25854,0,7.63379-1.49219,14.41504-4.43506,20.15479Z"/>
        <path class="cls-1" d="M287.77012,46.75566c7.70459-4.25488,16.29541-6.41211,25.53369-6.41211,11.44922,0,21.02197,3.02075,28.45215,8.97803,7.14893,5.73584,12.42725,13.20068,15.69287,22.19092h22.52637c-.11377-.80933-.396-2.47485-1.021-4.6936-2.30762-8.5061-6.40137-16.40088-12.16846-23.46973-5.76611-7.05884-13.2583-12.75928-22.26855-16.94263-9.01855-4.18311-19.37305-6.3042-30.7749-6.3042-14.14795,0-26.95703,3.2561-38.07129,9.67798-11.10547,6.41772-19.91992,15.56104-26.19727,27.17603-6.2334,11.53784-9.4165,25.01465-9.46143,40.05615.04492,15.03857,3.22803,28.51538,9.46143,40.05347,6.27734,11.61475,15.0918,20.75806,26.19727,27.17578,11.11426,6.42188,23.92334,9.67798,38.07129,9.67798,11.40186,0,21.75635-2.12109,30.7749-6.3042,9.01025-4.18335,16.50244-9.88379,22.26855-16.94287,5.76709-7.0686,9.86084-14.96338,12.16748-23.46484.62549-2.22217.90771-3.88867,1.02197-4.69824h-22.52588c-3.26465,8.98877-8.54346,16.45361-15.69336,22.19067-7.43018,5.95752-17.00293,8.97827-28.45215,8.97827-9.23828,0-17.8291-2.15723-25.53369-6.41187-7.71387-4.26392-13.96826-10.70288-18.59082-19.13892-4.61816-8.43262-6.95947-18.90186-6.95947-31.1167s2.34131-22.68408,6.95947-31.1167c4.62256-8.43604,10.87695-14.875,18.59082-19.13867Z"/>
      </g>
    </g>
  </g>
</svg>