<?xml version="1.0" encoding="UTF-8" standalone="no"?>
<!-- Created with Inkscape (http://www.inkscape.org/) -->

<svg
   xmlns:svg="http://www.w3.org/2000/svg"
   xmlns="http://www.w3.org/2000/svg"
   xmlns:xlink="http://www.w3.org/1999/xlink"
   version="1.1"
   width="799.99896"
   height="205.15199"
   viewBox="0 0 799.99898 205.15198"
   id="Livello_1"
   xml:space="preserve"><defs
   id="defs23" />
<g
   transform="matrix(2.9055478,0,0,2.9055478,-11.802335,-14.841553)"
   id="g3">
	<defs
   id="defs5"><rect
     width="275.33499"
     height="75.714996"
     x="4.0619998"
     y="0"
     id="SVGID_1_" /></defs>
	<clipPath
   id="SVGID_2_">
		<use
   id="use9"
   style="overflow:visible"
   x="0"
   y="0"
   width="283.45999"
   height="595.28003"
   xlink:href="#SVGID_1_" />
	</clipPath>
	<path
   d="m 101.434,48.515 c 0,1.752 -0.751,3.337 -2.754,3.337 -2.252,0 -3.004,-1.585 -3.004,-3.337 v -16.27 c 0,-1.752 0.751,-3.338 3.004,-3.338 2.003,0 2.754,1.586 2.754,3.338 v 16.27 z m -20.109,0.25 c 0,6.842 3.254,13.101 10.847,13.101 3.504,0 6.758,-1.335 9.262,-3.838 v 6.758 c 0,3.087 -1.252,3.421 -3.004,3.421 -1.669,0 -2.252,-1.836 -2.252,-2.92 V 63.7 H 81.826 c 0,9.762 7.677,12.015 15.853,12.015 11.265,0 18.606,-4.422 18.606,-16.438 V 19.645 h -14.351 v 3.922 h -0.167 c -2.754,-3.838 -5.507,-5.173 -9.595,-5.173 -7.76,0 -10.847,6.258 -10.847,13.183 v 17.188 z m -38.214,8.01 c 0,8.928 3.838,13.017 10.096,13.017 3.171,0 7.676,-1.836 9.012,-5.007 h 0.167 V 68.54 H 77.238 V 19.645 H 62.385 v 36.546 c 0,1.501 -0.083,3.588 -2.086,3.588 -1.918,0 -2.335,-2.002 -2.335,-3.504 V 19.645 H 43.111 v 37.13 z m -24.363,7.76 c 3.003,3.17 5.423,5.257 10.012,5.257 7.927,0 10.263,-6.592 10.263,-13.017 V 33.162 c 0,-10.346 -4.505,-14.769 -10.68,-14.769 -3.838,0 -7.092,2.587 -9.262,5.507 H 18.914 V 8.965 H 4.062 V 68.54 H 18.08 l 0.668,-4.005 z m 0.167,-32.29 c 0,-1.836 0.917,-3.338 2.836,-3.338 1.502,0 2.42,1.502 2.42,3.088 v 25.782 c 0,1.335 -1.084,2.503 -2.42,2.503 -2.252,0 -2.836,-1.335 -2.836,-4.339 V 32.245 z"
   clip-path="url(#SVGID_2_)"
   id="path11"
   style="fill:#cc071e" />
	<path
   d="m 141.838,64.979 c 16.534,0 29.936,-13.402 29.936,-29.936 0,-16.534 -13.402,-29.935 -29.936,-29.935 -16.533,0 -29.936,13.402 -29.936,29.936 0,16.534 13.403,29.935 29.936,29.935"
   clip-path="url(#SVGID_2_)"
   id="path13"
   style="fill:#646567" />
	<g
   clip-path="url(#SVGID_2_)"
   id="g15">
		<path
   d="m 124.059,41.969 h 17.072 v 6.675 c 0,1.418 1.035,2.67 3,2.67 1.655,0 3.312,-0.834 3.312,-2.836 v -2.503 c 0,-7.509 -22.867,-6.007 -22.867,-21.276 0,-6.508 1.863,-15.269 20.487,-15.269 7.76,0 19.452,2.419 19.452,12.432 v 4.589 h -17.072 v -4.589 c 0,-2.086 -1.035,-2.92 -2.794,-2.92 -1.759,0 -3,0.667 -3,2.92 v 1.919 c 0,3.003 6.208,4.672 14.175,8.343 8.381,3.921 9.416,7.843 9.416,14.518 0,10.847 -8.691,14.184 -21.832,14.184 -11.796,0 -19.349,-3.087 -19.349,-13.517 v -5.34 z"
   id="path17"
   style="fill:#ffffff" />
	</g>
	<path
   d="m 264.547,48.515 c 0,1.752 -0.752,3.337 -2.754,3.337 -2.253,0 -3.003,-1.585 -3.003,-3.337 v -16.27 c 0,-1.753 0.75,-3.337 3.003,-3.337 2.002,0 2.754,1.584 2.754,3.337 v 16.27 z m -20.109,0.25 c 0,6.842 3.254,13.1 10.847,13.1 3.506,0 6.76,-1.334 9.263,-3.838 v 6.759 c 0,3.087 -1.252,3.421 -3.005,3.421 -1.669,0 -2.252,-1.835 -2.252,-2.921 V 63.7 h -14.352 c 0,9.762 7.677,12.015 15.853,12.015 11.265,0 18.607,-4.422 18.607,-16.437 V 19.646 h -14.352 v 3.921 h -0.167 c -2.754,-3.838 -5.507,-5.173 -9.596,-5.173 -7.76,0 -10.847,6.258 -10.847,13.184 V 48.765 z M 206.224,68.54 h 14.852 V 31.994 c 0,-1.502 0.084,-3.588 2.087,-3.588 1.919,0 2.336,2.003 2.336,3.505 V 68.54 h 14.852 V 31.41 c 0,-8.928 -3.838,-13.017 -10.097,-13.017 -4.505,0 -7.843,2.587 -9.011,5.006 h -0.167 V 19.645 H 206.224 V 68.54 z m -22.61,-37.964 c 0,-1.919 0.416,-3.171 2.252,-3.171 2.085,0 2.587,1.586 2.587,3.422 v 6.007 h -4.839 v -6.258 z m -14.852,23.028 c 0,12.682 9.345,16.187 17.521,16.187 7.843,0 16.521,-3.504 16.521,-16.187 v -5.006 h -14.351 v 8.761 c 0,1.835 -0.502,3.421 -2.587,3.421 -1.836,0 -2.252,-1.252 -2.252,-3.171 V 44.843 h 19.189 V 34.581 c 0,-12.265 -9.346,-16.187 -16.521,-16.187 -8.177,0 -17.521,3.505 -17.521,16.187 v 19.023 z"
   clip-path="url(#SVGID_2_)"
   id="path19"
   style="fill:#cc071e" />
</g>
</svg>