<?xml version="1.0" encoding="utf-8"?>
<!-- Generator: Adobe Illustrator 25.2.3, SVG Export Plug-In . SVG Version: 6.00 Build 0)  -->
<svg version="1.1" id="Layer_1" xmlns="http://www.w3.org/2000/svg" xmlns:xlink="http://www.w3.org/1999/xlink" x="0px" y="0px"
	 viewBox="0 0 374.5 373.8" style="enable-background:new 0 0 374.5 373.8;" xml:space="preserve">
<style type="text/css">
	.st0{fill:#FFFFFF;}
	.st1{fill:#27B1D4;}
	.st2{enable-background:new    ;}
</style>
<path class="st0" d="M336.9,345.2H38.4c-5,0-9-4-9-9V37.7c0-5,4-9,9-9h298.5c5,0,9,4,9,9v298.5C345.9,341.1,341.9,345.2,336.9,345.2
	L336.9,345.2z M38.4,34.7c-1.7,0-3,1.3-3,3v298.5c0,1.7,1.3,3,3,3h298.5c1.7,0,3-1.3,3-3V37.7c0-1.7-1.3-3-3-3H38.4z"/>
<path class="st0" d="M155.7,32.1c-1.7,0-3-1.3-3-3l0,0V3c0-1.7,1.3-3,3-3s3,1.3,3,3v26.1C158.7,30.8,157.4,32.1,155.7,32.1
	L155.7,32.1z"/>
<path class="st0" d="M218.1,32.1c-1.7,0-3-1.3-3-3l0,0V3c0-1.7,1.3-3,3-3s3,1.3,3,3v26.1C221.1,30.8,219.7,32.1,218.1,32.1
	L218.1,32.1z"/>
<path class="st0" d="M280.4,32.1c-1.7,0-3-1.3-3-3l0,0V3c0-1.7,1.3-3,3-3s3,1.3,3,3v26.1C283.4,30.8,282.1,32.1,280.4,32.1
	L280.4,32.1z"/>
<path class="st0" d="M93.4,32.1c-1.7,0-3-1.3-3-3l0,0V3c0-1.7,1.3-3,3-3s3,1.3,3,3v26.1C96.4,30.8,95,32.1,93.4,32.1L93.4,32.1z"/>
<path class="st0" d="M280.4,373.8c-1.7,0-3-1.3-3-3v-26.1c0-1.7,1.3-3,3-3s3,1.3,3,3v26.1C283.4,372.4,282.1,373.8,280.4,373.8
	L280.4,373.8z"/>
<path class="st0" d="M93.4,373.8c-1.7,0-3-1.3-3-3v-26.1c0-1.7,1.3-3,3-3s3,1.3,3,3v26.1C96.4,372.4,95,373.8,93.4,373.8L93.4,373.8
	z"/>
<path class="st0" d="M29.1,221.1H3c-1.7,0-3-1.3-3-3s1.3-3,3-3h26.1c1.7,0,3,1.3,3,3S30.8,221.1,29.1,221.1z"/>
<path class="st0" d="M29.1,158.7H3c-1.7,0-3-1.3-3-3s1.3-3,3-3h26.1c1.7,0,3,1.3,3,3S30.8,158.7,29.1,158.7z"/>
<path class="st0" d="M29.1,96.4H3c-1.7,0-3-1.3-3-3s1.3-3,3-3h26.1c1.7,0,3,1.3,3,3S30.8,96.4,29.1,96.4z"/>
<path class="st0" d="M29.1,283.5H3c-1.7,0-3-1.3-3-3s1.3-3,3-3h26.1c1.7,0,3,1.3,3,3S30.8,283.5,29.1,283.5z"/>
<path class="st0" d="M371.5,221.1h-26.1c-1.7,0-3-1.3-3-3s1.3-3,3-3h26.1c1.7,0,3,1.3,3,3S373.2,221.1,371.5,221.1z"/>
<path class="st0" d="M371.5,158.7h-26.1c-1.7,0-3-1.3-3-3s1.3-3,3-3h26.1c1.7,0,3,1.3,3,3S373.2,158.7,371.5,158.7z"/>
<path class="st0" d="M371.5,96.4h-26.1c-1.7,0-3-1.3-3-3s1.3-3,3-3h26.1c1.7,0,3,1.3,3,3S373.2,96.4,371.5,96.4z"/>
<path class="st0" d="M371.5,283.5h-26.1c-1.7,0-3-1.3-3-3s1.3-3,3-3h26.1c1.7,0,3,1.3,3,3S373.2,283.5,371.5,283.5z"/>
<path class="st0" d="M218.1,373.8c-1.7,0-3-1.3-3-3v-26.1c0-1.7,1.3-3,3-3s3,1.3,3,3v26.1C221.1,372.4,219.7,373.8,218.1,373.8
	L218.1,373.8z"/>
<path class="st0" d="M155.7,373.8c-1.7,0-3-1.3-3-3v-26.1c0-1.7,1.3-3,3-3s3,1.3,3,3v26.1C158.7,372.4,157.4,373.8,155.7,373.8
	L155.7,373.8z"/>
<rect x="57.3" y="57.9" class="st1" width="260" height="260"/>
<g class="st2">
	<path class="st0" d="M111,164.5v41.2h-6.8v-26.6c0-1.1,0.1-2.2,0.2-3.4l-12.5,23.4c-0.6,1.1-1.5,1.7-2.7,1.7h-1.1
		c-1.2,0-2.1-0.6-2.7-1.7l-12.6-23.5c0.1,0.6,0.1,1.2,0.1,1.9c0,0.6,0.1,1.2,0.1,1.7v26.6h-6.8v-41.2h5.8c0.3,0,0.6,0,0.9,0
		c0.2,0,0.5,0.1,0.7,0.1c0.2,0.1,0.4,0.2,0.5,0.4c0.2,0.2,0.3,0.4,0.5,0.7L87,188.6c0.3,0.6,0.6,1.2,0.9,1.9c0.3,0.6,0.5,1.3,0.8,2
		c0.3-0.7,0.5-1.4,0.8-2s0.6-1.3,0.9-1.9l12.2-22.8c0.2-0.3,0.3-0.5,0.5-0.7c0.2-0.2,0.4-0.3,0.6-0.4c0.2-0.1,0.4-0.1,0.7-0.1
		c0.2,0,0.5,0,0.9,0H111z"/>
	<path class="st0" d="M148.4,196c0.4,0,0.8,0.2,1.1,0.5l3,3.3c-1.7,2.1-3.7,3.7-6.2,4.8c-2.4,1.1-5.4,1.7-8.8,1.7
		c-3.1,0-5.8-0.5-8.3-1.6s-4.5-2.5-6.3-4.4c-1.7-1.9-3.1-4.1-4-6.7c-0.9-2.6-1.4-5.4-1.4-8.5c0-3.1,0.5-5.9,1.5-8.5
		c1-2.6,2.4-4.8,4.2-6.7c1.8-1.9,3.9-3.3,6.4-4.3c2.5-1,5.2-1.6,8.3-1.6c3,0,5.7,0.5,8,1.5c2.3,1,4.3,2.3,5.9,3.9l-2.6,3.6
		c-0.2,0.2-0.3,0.4-0.6,0.6c-0.2,0.2-0.6,0.3-1,0.3c-0.3,0-0.6-0.1-0.9-0.2c-0.3-0.2-0.6-0.4-1-0.6c-0.4-0.2-0.8-0.5-1.3-0.8
		c-0.5-0.3-1-0.5-1.7-0.8c-0.6-0.2-1.4-0.4-2.2-0.6c-0.8-0.2-1.8-0.2-2.9-0.2c-1.8,0-3.5,0.3-5.1,1s-2.8,1.6-3.9,2.8
		c-1.1,1.2-2,2.8-2.6,4.6c-0.6,1.8-0.9,3.8-0.9,6.1c0,2.3,0.3,4.4,1,6.2c0.7,1.8,1.5,3.3,2.7,4.6c1.1,1.2,2.4,2.2,4,2.8
		c1.5,0.7,3.2,1,4.9,1c1,0,2-0.1,2.8-0.2c0.8-0.1,1.6-0.3,2.3-0.5c0.7-0.2,1.4-0.6,2-1c0.6-0.4,1.3-0.9,1.9-1.4
		c0.2-0.2,0.4-0.3,0.6-0.4S148.2,196,148.4,196z"/>
	<path class="st0" d="M174.4,199.6c1.5,0,2.8-0.2,4-0.7c1.2-0.5,2.2-1.2,2.9-2.1c0.8-0.9,1.4-2,1.8-3.2c0.4-1.3,0.6-2.7,0.6-4.3
		v-24.7h7.7v24.7c0,2.5-0.4,4.7-1.2,6.8c-0.8,2.1-1.9,3.9-3.4,5.4c-1.5,1.5-3.3,2.7-5.4,3.5c-2.1,0.8-4.5,1.3-7.1,1.3
		c-2.7,0-5-0.4-7.2-1.3c-2.1-0.8-3.9-2-5.4-3.5c-1.5-1.5-2.6-3.3-3.4-5.4c-0.8-2.1-1.2-4.3-1.2-6.8v-24.7h7.7v24.7
		c0,1.6,0.2,3,0.6,4.3c0.4,1.3,1,2.4,1.9,3.3c0.8,0.9,1.8,1.6,3,2.1C171.6,199.3,172.9,199.6,174.4,199.6z"/>
	<path class="st0" d="M205.6,180.1c1.2-1.2,2.5-2.2,3.9-2.9s3.1-1.1,4.9-1.1c1.7,0,3.2,0.3,4.6,1s2.5,1.6,3.5,2.9
		c1,1.2,1.7,2.8,2.2,4.5c0.5,1.8,0.8,3.8,0.8,6c0,2.4-0.3,4.5-0.9,6.5c-0.6,1.9-1.4,3.6-2.5,5c-1.1,1.4-2.4,2.4-3.9,3.2
		s-3.2,1.1-5.1,1.1c-0.9,0-1.7-0.1-2.5-0.3c-0.7-0.2-1.4-0.4-2.1-0.8c-0.6-0.3-1.2-0.7-1.7-1.2s-1-1-1.5-1.6l-0.3,2
		c-0.1,0.5-0.3,0.8-0.6,1.1s-0.7,0.3-1.1,0.3h-4.6v-42.4h7V180.1z M205.6,198.2c0.8,1,1.7,1.7,2.6,2.1c0.9,0.4,1.9,0.6,3,0.6
		c1.1,0,2.1-0.2,2.9-0.6c0.9-0.4,1.6-1,2.2-1.8s1.1-1.9,1.4-3.2c0.3-1.3,0.5-2.8,0.5-4.6c0-3.2-0.5-5.5-1.6-7s-2.6-2.2-4.6-2.2
		c-1.3,0-2.5,0.3-3.5,0.9c-1,0.6-2,1.5-2.9,2.6V198.2z"/>
	<path class="st0" d="M243.9,176c2.2,0,4.1,0.4,5.9,1.1c1.8,0.7,3.3,1.7,4.6,3c1.3,1.3,2.2,2.9,2.9,4.7c0.7,1.9,1,3.9,1,6.2
		c0,2.3-0.3,4.4-1,6.3c-0.7,1.9-1.7,3.4-2.9,4.8c-1.3,1.3-2.8,2.3-4.6,3c-1.8,0.7-3.7,1.1-5.9,1.1c-2.2,0-4.2-0.4-6-1.1
		c-1.8-0.7-3.3-1.7-4.6-3c-1.3-1.3-2.2-2.9-2.9-4.8c-0.7-1.9-1-4-1-6.3c0-2.3,0.3-4.4,1-6.2c0.7-1.9,1.7-3.4,2.9-4.7
		c1.3-1.3,2.8-2.3,4.6-3C239.7,176.4,241.7,176,243.9,176z M243.9,200.8c2.4,0,4.2-0.8,5.4-2.5c1.2-1.6,1.8-4,1.8-7.2
		c0-3.2-0.6-5.6-1.8-7.2c-1.2-1.7-3-2.5-5.4-2.5c-2.5,0-4.3,0.8-5.5,2.5c-1.2,1.7-1.8,4.1-1.8,7.2c0,3.1,0.6,5.5,1.8,7.2
		C239.6,199.9,241.4,200.8,243.9,200.8z"/>
	<path class="st0" d="M276.6,176c2.2,0,4.1,0.4,5.9,1.1c1.8,0.7,3.3,1.7,4.6,3c1.3,1.3,2.2,2.9,2.9,4.7c0.7,1.9,1,3.9,1,6.2
		c0,2.3-0.3,4.4-1,6.3c-0.7,1.9-1.7,3.4-2.9,4.8c-1.3,1.3-2.8,2.3-4.6,3c-1.8,0.7-3.7,1.1-5.9,1.1c-2.2,0-4.2-0.4-6-1.1
		c-1.8-0.7-3.3-1.7-4.6-3c-1.3-1.3-2.2-2.9-2.9-4.8c-0.7-1.9-1-4-1-6.3c0-2.3,0.3-4.4,1-6.2c0.7-1.9,1.7-3.4,2.9-4.7
		c1.3-1.3,2.8-2.3,4.6-3C272.4,176.4,274.4,176,276.6,176z M276.6,200.8c2.4,0,4.2-0.8,5.4-2.5c1.2-1.6,1.8-4,1.8-7.2
		c0-3.2-0.6-5.6-1.8-7.2c-1.2-1.7-3-2.5-5.4-2.5c-2.5,0-4.3,0.8-5.5,2.5c-1.2,1.7-1.8,4.1-1.8,7.2c0,3.1,0.6,5.5,1.8,7.2
		C272.3,199.9,274.1,200.8,276.6,200.8z"/>
	<path class="st0" d="M305.6,206.2c-2.5,0-4.5-0.7-5.9-2.2s-2-3.4-2-5.9v-16.3h-3c-0.4,0-0.7-0.1-1-0.4c-0.3-0.2-0.4-0.6-0.4-1.1
		v-2.8l4.7-0.8l1.5-8c0.1-0.4,0.3-0.7,0.5-0.9c0.3-0.2,0.6-0.3,1-0.3h3.6v9.2h7.8v5h-7.8v15.8c0,0.9,0.2,1.6,0.7,2.1
		c0.4,0.5,1.1,0.8,1.8,0.8c0.4,0,0.8-0.1,1.1-0.2c0.3-0.1,0.6-0.2,0.8-0.3c0.2-0.1,0.4-0.2,0.6-0.3s0.3-0.2,0.5-0.2
		c0.2,0,0.4,0.1,0.5,0.2c0.1,0.1,0.3,0.3,0.4,0.5l2.1,3.4c-1,0.9-2.2,1.5-3.5,1.9C308.4,206,307,206.2,305.6,206.2z"/>
</g>
</svg>
