<?xml version="1.0"?>
<svg width="79.64" height="79.49" xmlns="http://www.w3.org/2000/svg" xmlns:svg="http://www.w3.org/2000/svg">
 <defs>
  <style>.cls-1{fill:#11a9d4;opacity:0.8;}.cls-2,.cls-3{fill:#fff;}.cls-3{font-size:12.4px;font-family:Lato-Bold, Lato;font-weight:700;letter-spacing:0.03em;}.cls-4{letter-spacing:0.02em;}.cls-5{letter-spacing:0.03em;}.cls-6{letter-spacing:0em;}</style>
 </defs>
 <title>TF_Icon_TF-A</title>
 <g class="layer">
  <title>Layer 1</title>
  <g data-name="Layer 1" id="Layer_1">
   <rect class="cls-1" height="55.39" id="svg_1" width="55.39" x="12.13" y="12.05"/>
   <path class="cls-2" d="m71.64,73.4l-63.48,0a1.93,1.93 0 0 1 -1.92,-1.92l0,-63.48a1.93,1.93 0 0 1 1.92,-1.91l63.48,0a1.92,1.92 0 0 1 1.92,1.91l0,63.48a1.92,1.92 0 0 1 -1.92,1.92zm-63.48,-66.03a0.64,0.64 0 0 0 -0.64,0.63l0,63.48a0.64,0.64 0 0 0 0.64,0.64l63.48,0a0.64,0.64 0 0 0 0.64,-0.64l0,-63.48a0.64,0.64 0 0 0 -0.64,-0.64l-63.48,0.01z" id="svg_2"/>
   <path class="cls-2" d="m33.12,6.83a0.64,0.64 0 0 1 -0.64,-0.64l0,-5.55a0.64,0.64 0 0 1 0.64,-0.64a0.64,0.64 0 0 1 0.64,0.64l0,5.55a0.64,0.64 0 0 1 -0.64,0.64z" id="svg_3"/>
   <path class="cls-2" d="m46.38,6.83a0.64,0.64 0 0 1 -0.64,-0.64l0,-5.55a0.64,0.64 0 0 1 0.64,-0.64a0.64,0.64 0 0 1 0.62,0.64l0,5.55a0.64,0.64 0 0 1 -0.62,0.64z" id="svg_4"/>
   <path class="cls-2" d="m59.64,6.83a0.64,0.64 0 0 1 -0.64,-0.64l0,-5.55a0.64,0.64 0 0 1 1.28,0l0,5.55a0.64,0.64 0 0 1 -0.64,0.64z" id="svg_5"/>
   <path class="cls-2" d="m19.85,6.83a0.64,0.64 0 0 1 -0.64,-0.64l0,-5.55a0.64,0.64 0 0 1 0.64,-0.64a0.64,0.64 0 0 1 0.64,0.64l0,5.55a0.64,0.64 0 0 1 -0.64,0.64z" id="svg_6"/>
   <path class="cls-2" d="m59.64,79.49a0.64,0.64 0 0 1 -0.64,-0.64l0,-5.55a0.64,0.64 0 0 1 1.28,0l0,5.55a0.64,0.64 0 0 1 -0.64,0.64z" id="svg_7"/>
   <path class="cls-2" d="m19.85,79.49a0.64,0.64 0 0 1 -0.64,-0.64l0,-5.55a0.64,0.64 0 0 1 0.64,-0.64a0.64,0.64 0 0 1 0.64,0.64l0,5.55a0.63,0.63 0 0 1 -0.64,0.64z" id="svg_8"/>
   <path class="cls-2" d="m6.19,47l-5.55,0a0.64,0.64 0 0 1 -0.64,-0.62a0.64,0.64 0 0 1 0.64,-0.64l5.55,0a0.64,0.64 0 0 1 0.64,0.64a0.64,0.64 0 0 1 -0.64,0.62z" id="svg_9"/>
   <path class="cls-2" d="m6.19,33.76l-5.55,0a0.64,0.64 0 0 1 -0.64,-0.64a0.64,0.64 0 0 1 0.64,-0.64l5.55,0a0.64,0.64 0 0 1 0.64,0.64a0.64,0.64 0 0 1 -0.64,0.64z" id="svg_10"/>
   <path class="cls-2" d="m6.19,20.49l-5.55,0a0.64,0.64 0 0 1 -0.64,-0.64a0.64,0.64 0 0 1 0.64,-0.64l5.55,0a0.64,0.64 0 0 1 0.64,0.64a0.64,0.64 0 0 1 -0.64,0.64z" id="svg_11"/>
   <path class="cls-2" d="m6.19,60.28l-5.55,0a0.64,0.64 0 0 1 0,-1.28l5.55,0a0.64,0.64 0 0 1 0,1.28z" id="svg_12"/>
   <path class="cls-2" d="m79,47l-5.54,0a0.64,0.64 0 1 1 0,-1.28l5.54,0a0.64,0.64 0 0 1 0,1.28z" id="svg_13"/>
   <path class="cls-2" d="m79,33.76l-5.54,0a0.64,0.64 0 1 1 0,-1.28l5.54,0a0.64,0.64 0 0 1 0,1.28z" id="svg_14"/>
   <path class="cls-2" d="m79,20.49l-5.54,0a0.64,0.64 0 0 1 0,-1.28l5.54,0a0.64,0.64 0 0 1 0,1.28z" id="svg_15"/>
   <path class="cls-2" d="m79,60.28l-5.54,0a0.64,0.64 0 0 1 0,-1.28l5.54,0a0.64,0.64 0 0 1 0,1.28z" id="svg_16"/>
   <path class="cls-2" d="m46.38,79.49a0.63,0.63 0 0 1 -0.64,-0.64l0,-5.55a0.64,0.64 0 0 1 0.64,-0.64a0.64,0.64 0 0 1 0.64,0.64l0,5.55a0.64,0.64 0 0 1 -0.64,0.64z" id="svg_17"/>
   <path class="cls-2" d="m33.12,79.49a0.63,0.63 0 0 1 -0.64,-0.64l0,-5.55a0.64,0.64 0 0 1 0.64,-0.64a0.64,0.64 0 0 1 0.64,0.64l0,5.55a0.64,0.64 0 0 1 -0.64,0.64z" id="svg_18"/>
   <text class="cls-3" font-size="12.4" id="svg_19" style="cursor: move;" transform="matrix(1 0 0 1 0 0)" x="24" y="43.88">RF-A</text>
  </g>
 </g>
</svg>