<?xml version="1.0" encoding="UTF-8" standalone="no"?>
<svg
   id="Layer_1"
   data-name="Layer 1"
   viewBox="0 0 374.51 373.8"
   version="1.1"
   sodipodi:docname="drawing.svg"
   inkscape:export-filename="MCUboot.svg"
   inkscape:export-xdpi="96"
   inkscape:export-ydpi="96"
   inkscape:version="1.2.2 (b0a84865, 2022-12-01)"
   xmlns:inkscape="http://www.inkscape.org/namespaces/inkscape"
   xmlns:sodipodi="http://sodipodi.sourceforge.net/DTD/sodipodi-0.dtd"
   xmlns="http://www.w3.org/2000/svg"
   xmlns:svg="http://www.w3.org/2000/svg">
  <sodipodi:namedview
     id="namedview53"
     pagecolor="#ffffff"
     bordercolor="#000000"
     borderopacity="0.25"
     inkscape:showpageshadow="2"
     inkscape:pageopacity="0.0"
     inkscape:pagecheckerboard="0"
     inkscape:deskcolor="#d1d1d1"
     showgrid="false"
     inkscape:zoom="2.7474586"
     inkscape:cx="142.8593"
     inkscape:cy="196.72726"
     inkscape:window-width="1841"
     inkscape:window-height="1205"
     inkscape:window-x="298"
     inkscape:window-y="25"
     inkscape:window-maximized="0"
     inkscape:current-layer="g1708" />
  <defs
     id="defs4">
    <style
       id="style2">.cls-1,.cls-3{fill:#fff;}.cls-2{fill:#27b1d4;}.cls-3{font-size:57px;font-family:Lato-Bold, Lato;font-weight:700;letter-spacing:-0.01em;}.cls-4{letter-spacing:-0.02em;}.cls-5{letter-spacing:-0.01em;}.cls-6{letter-spacing:-0.02em;}</style>
  </defs>
  <g
     id="g1708">
    <path
       class="cls-1"
       d="M336.86,345.17H38.39a9,9,0,0,1-9-9V37.67a9,9,0,0,1,9-9H336.86a9,9,0,0,1,9,9V336.14A9,9,0,0,1,336.86,345.17ZM38.39,34.66a3,3,0,0,0-3,3V336.14a3,3,0,0,0,3,3H336.86a3,3,0,0,0,3-3V37.67a3,3,0,0,0-3-3Z"
       id="path6"
       style="fill:none"
       inkscape:label="path6" />
    <path
       id="rect40"
       style="fill:#27b1d4"
       class="cls-2"
       d="M 57.259998,57.900002 H 317.26 V 317.9 H 57.259998 Z"
       inkscape:label="rect40" />
    <path
       id="path3689"
       style="font-weight:700;font-size:57px;line-height:0;font-family:Lato-Bold, Lato;letter-spacing:-0.01em;fill:#ffffff;stroke-width:0.878978"
       d="m 187.75,155.82812 v 49.04883 h 8.40234 l 0.36524,-1.76562 c 1.03909,0.79855 2.13631,1.40784 3.28906,1.82812 1.15274,0.4203 2.49141,0.63086 4.01758,0.63086 3.55565,0 6.51824,-1.75624 8.88867,-5.26562 2.38666,-3.50942 3.58008,-8.04839 3.58008,-13.61719 0,-5.67387 -0.93366,-10.1188 -2.80078,-13.33398 -1.86713,-3.23623 -4.53008,-4.85352 -7.98828,-4.85352 -1.83465,0 -3.45666,0.43138 -4.86914,1.29297 -1.39628,0.86159 -2.76961,1.98609 -4.11719,3.37305 v -17.3379 z m -58.69336,1.19727 c -2.7601,0 -5.30858,0.56835 -7.64648,1.70313 -2.32172,1.13472 -4.27083,2.74183 -5.84571,4.82226 -1.63982,2.16449 -2.8895,4.76103 -3.75,7.78711 -0.8605,3.02608 -1.29101,6.39763 -1.29101,10.11719 0,3.9927 0.44687,7.5135 1.33984,10.56054 0.90921,3.04711 2.1844,5.58855 3.82422,7.62696 1.63982,2.03839 3.59613,3.5738 5.86914,4.60351 2.28926,1.02971 4.78146,1.54493 7.47656,1.54493 1.81841,0 3.24607,-0.11651 4.28516,-0.34766 1.03909,-0.23116 2.15268,-0.56651 3.33789,-1.00781 0.90921,-0.33624 1.77745,-0.73691 2.60547,-1.19922 0.82802,-0.46232 1.69626,-0.9551 2.60547,-1.48047 V 190.5332 h -0.97461 c -0.43837,0.50435 -0.99779,1.10341 -1.67969,1.79688 -0.68191,0.69348 -1.42124,1.34566 -2.2168,1.95508 -0.94168,0.75652 -1.97152,1.35557 -3.09179,1.79687 -1.10404,0.44131 -2.22482,0.66211 -3.36133,0.66211 -1.18521,0 -2.38778,-0.24322 -3.60547,-0.72656 -1.21769,-0.50435 -2.32016,-1.33444 -3.31055,-2.49024 -0.97415,-1.13478 -1.78611,-2.6887 -2.43554,-4.66406 -0.6332,-1.97536 -0.95118,-4.43493 -0.95118,-7.37695 0,-2.81595 0.29246,-5.21019 0.87696,-7.18555 0.60072,-1.97536 1.37998,-3.562 2.33789,-4.75976 1.00662,-1.23986 2.10385,-2.12308 3.28906,-2.64844 1.18522,-0.54639 2.4349,-0.82031 3.75,-0.82031 1.18522,0 2.29685,0.23108 3.33594,0.69335 1.03909,0.46232 2.00547,1.03066 2.89844,1.70313 0.87668,0.67246 1.65599,1.35535 2.33789,2.04883 0.69814,0.69348 1.27391,1.29253 1.72851,1.79687 h 1.07227 v -11.3789 c -0.66568,-0.4203 -1.44492,-0.87214 -2.33789,-1.35547 -0.87674,-0.50434 -1.85947,-0.9562 -2.94727,-1.35547 -1.03909,-0.35725 -2.17428,-0.64142 -3.4082,-0.85156 -1.21769,-0.23116 -2.59102,-0.34766 -4.11719,-0.34766 z m -63.185546,0.91406 v 46.9375 H 74.6875 v -31.42773 l 6.720703,20.39453 h 6.455078 l 6.720703,-20.39453 v 31.42773 h 9.302736 v -46.9375 H 93.025391 l -8.134766,23.54688 -8.158203,-23.54688 z m 81.853516,0 v 29.97852 c 0,5.77893 1.35502,10.21166 4.06641,13.30078 2.72757,3.08912 6.74752,4.63477 12.05664,4.63477 5.30907,0 9.32711,-1.54565 12.05468,-4.63477 2.72762,-3.08912 4.0918,-7.53208 4.0918,-13.33203 v -29.94727 h -9.40039 v 29.28516 c 0,3.38332 -0.54501,5.84094 -1.63281,7.375 -1.07157,1.53405 -2.77537,2.30078 -5.11328,2.30078 -2.37043,0 -4.08334,-0.79743 -5.13868,-2.39453 -1.05528,-1.5971 -1.58398,-4.02402 -1.58398,-7.28125 v -29.28516 z m 142.39844,1.41993 v 10.11718 h -3.60352 v 7.69141 h 3.60352 v 16.54883 c 0,4.32897 0.82832,7.3876 2.48437,9.17382 1.67229,1.78624 4.21352,2.67969 7.62305,2.67969 1.52616,0 2.81577,-0.096 3.87109,-0.28515 1.05533,-0.16812 2.05442,-0.40939 2.9961,-0.72461 v -7.78516 h -0.73047 c -0.29224,0.21014 -0.81174,0.44118 -1.5586,0.69336 -0.73061,0.25217 -1.32273,0.37891 -1.77734,0.37891 -1.10403,0 -1.94871,-0.21058 -2.5332,-0.63086 -0.56826,-0.4413 -0.96606,-1.03012 -1.19336,-1.76563 -0.24358,-0.73551 -0.37443,-1.56559 -0.39063,-2.49023 -0.0162,-0.92463 -0.0234,-2.00624 -0.0234,-3.2461 v -12.54687 h 8.20704 v -7.69141 h -8.20704 v -10.11718 z m -55.01563,9.01367 c -4.70837,0 -8.38676,1.67237 -11.0332,5.01367 -2.63021,3.3413 -3.94531,7.94166 -3.94531,13.80469 0,5.82098 1.3079,10.41308 3.92187,13.77539 2.63021,3.34127 6.3158,5.01172 11.05664,5.01172 4.74086,0 8.41729,-1.67045 11.03125,-5.01172 2.63021,-3.36231 3.94531,-7.95441 3.94531,-13.77539 0,-5.821 -1.30595,-10.41113 -3.91992,-13.77344 -2.59771,-3.36232 -6.2833,-5.04492 -11.05664,-5.04492 z m 33.74219,0 c -4.70839,0 -8.38481,1.67237 -11.03125,5.01367 -2.6302,3.3413 -3.94531,7.94166 -3.94531,13.80469 0,5.82099 1.30595,10.41308 3.91992,13.77539 2.63021,3.34128 6.31578,5.01172 11.05664,5.01172 4.74085,0 8.41924,-1.67044 11.0332,-5.01172 2.63021,-3.36231 3.94531,-7.9544 3.94531,-13.77539 10e-6,-5.821 -1.3079,-10.41113 -3.92187,-13.77344 -2.59773,-3.36232 -6.28332,-5.04492 -11.05664,-5.04492 z m -33.74219,7.91211 c 0.84427,0 1.63072,0.17987 2.36133,0.53711 0.73061,0.35725 1.35545,0.96653 1.875,1.82812 0.51955,0.84058 0.9265,1.96508 1.21875,3.37305 0.29224,1.40797 0.4375,3.15199 0.4375,5.23242 0,2.24854 -0.14526,4.01304 -0.4375,5.29492 -0.27601,1.26087 -0.69739,2.34247 -1.26562,3.2461 -0.50332,0.81953 -1.12095,1.40837 -1.85157,1.76562 -0.71437,0.33623 -1.47006,0.50391 -2.26562,0.50391 -0.92544,0 -1.75376,-0.18816 -2.48438,-0.56641 -0.71438,-0.37827 -1.33006,-0.97732 -1.84961,-1.79688 -0.53578,-0.86157 -0.94273,-1.99632 -1.21875,-3.40429 -0.276,-1.42899 -0.41406,-3.10965 -0.41406,-5.04297 0,-2.16449 0.15441,-3.96164 0.46289,-5.39063 0.32472,-1.42896 0.75524,-2.55348 1.29102,-3.37304 0.60072,-0.88261 1.22556,-1.47142 1.875,-1.76563 0.66567,-0.2942 1.42136,-0.4414 2.26562,-0.4414 z m 33.74219,0 c 0.84426,0 1.63266,0.17987 2.36328,0.53711 0.73061,0.35725 1.35546,0.96653 1.875,1.82812 0.51955,0.84058 0.92456,1.96508 1.2168,3.37305 0.29224,1.40797 0.43945,3.15199 0.43945,5.23242 0,2.24854 -0.14721,4.01304 -0.43945,5.29492 -0.27601,1.26087 -0.69737,2.34247 -1.26563,3.2461 -0.5033,0.81954 -1.12094,1.40837 -1.85156,1.76562 -0.71438,0.33623 -1.47009,0.50391 -2.26562,0.50391 -0.92545,0 -1.75181,-0.18816 -2.48243,-0.56641 -0.71438,-0.37827 -1.33201,-0.97732 -1.85156,-1.79688 -0.53578,-0.86158 -0.94078,-1.99632 -1.2168,-3.40429 -0.276,-1.42899 -0.41406,-3.10965 -0.41406,-5.04297 0,-2.16449 0.15246,-3.96164 0.46094,-5.39063 0.32472,-1.42897 0.75523,-2.55348 1.29101,-3.37304 0.60073,-0.88261 1.22558,-1.47142 1.875,-1.76563 0.66567,-0.2942 1.42136,-0.4414 2.26563,-0.4414 z m -67.26563,0.78906 c 2.1269,0 3.60365,0.85056 4.43164,2.55273 0.82804,1.70217 1.24219,4.12912 1.24219,7.28125 0,3.53043 -0.56856,6.17814 -1.70508,7.94336 -1.13648,1.76521 -2.86578,2.64844 -5.1875,2.64844 -0.79552,0 -1.47666,-0.0531 -2.04492,-0.1582 -0.56825,-0.10508 -1.16953,-0.30346 -1.80273,-0.59766 v -17.7793 c 0.79556,-0.60942 1.63303,-1.0715 2.50976,-1.38672 0.87674,-0.33619 1.72864,-0.5039 2.55664,-0.5039 z"
       inkscape:label="path3689" />
  </g>
</svg>
