<?xml version="1.0" encoding="UTF-8" standalone="no"?>
<!-- Created with Inkscape (http://www.inkscape.org/) -->

<svg
   width="210mm"
   height="297mm"
   viewBox="0 0 210 297"
   version="1.1"
   id="svg1764"
   xmlns="http://www.w3.org/2000/svg"
   xmlns:svg="http://www.w3.org/2000/svg">
  <defs
     id="defs1761" />
  <g
     id="layer1">
    <path
       id="rect40"
       style="fill:#27b1d4;stroke-width:0.264583"
       class="cls-2"
       d="m 51.108366,120.2919 h 68.791664 v 68.79166 H 51.108366 Z" />
    <path
       id="path3689"
       style="font-weight:700;font-size:57px;line-height:0;font-family:Lato-Bold, Lato;letter-spacing:-0.01em;fill:#ffffff;stroke-width:0.232563"
       d="m 85.633845,146.20204 v 12.97751 h 2.223119 l 0.09664,-0.46716 c 0.274926,0.21129 0.565232,0.37249 0.87023,0.48369 0.304996,0.11121 0.659186,0.16692 1.062985,0.16692 0.940766,0 1.724618,-0.46467 2.351794,-1.3932 0.63147,-0.92853 0.947229,-2.12947 0.947229,-3.60288 0,-1.50121 -0.247031,-2.67727 -0.741039,-3.52795 -0.494012,-0.85625 -1.198584,-1.28416 -2.113566,-1.28416 -0.485418,0 -0.914575,0.11414 -1.288293,0.3421 -0.369433,0.22796 -0.732793,0.52549 -1.08934,0.89245 v -4.58732 z m -15.529284,0.31678 c -0.730277,0 -1.404562,0.15038 -2.023132,0.45062 -0.614288,0.30023 -1.12999,0.72544 -1.546677,1.27589 -0.433869,0.57269 -0.764514,1.25969 -0.992187,2.06034 -0.227674,0.80065 -0.34158,1.69271 -0.34158,2.67684 0,1.0564 0.118234,1.98795 0.354499,2.79414 0.240562,0.80622 0.577956,1.47864 1.011825,2.01797 0.433869,0.53932 0.951476,0.94557 1.552877,1.21801 0.6057,0.27244 1.265094,0.40876 1.978173,0.40876 0.481121,0 0.858856,-0.0308 1.133782,-0.092 0.274926,-0.0612 0.569563,-0.14989 0.88315,-0.26665 0.240561,-0.089 0.470283,-0.19498 0.689364,-0.3173 0.21908,-0.12232 0.448802,-0.2527 0.689364,-0.3917 v -2.96933 h -0.257866 c -0.115985,0.13344 -0.263999,0.29194 -0.444418,0.47542 -0.180422,0.18349 -0.376036,0.35604 -0.586528,0.51728 -0.249153,0.20017 -0.521632,0.35867 -0.818036,0.47543 -0.292111,0.11676 -0.588651,0.17518 -0.889352,0.17518 -0.313587,0 -0.631767,-0.0643 -0.953948,-0.19224 -0.32218,-0.13344 -0.613875,-0.35307 -0.875916,-0.65887 -0.257744,-0.30025 -0.472575,-0.71139 -0.644403,-1.23403 -0.167534,-0.52265 -0.251667,-1.17341 -0.251667,-1.95182 0,-0.74506 0.07738,-1.37853 0.232029,-1.90118 0.158941,-0.52265 0.36512,-0.94245 0.618567,-1.25935 0.266335,-0.32805 0.556644,-0.56173 0.870231,-0.70074 0.313589,-0.14456 0.644234,-0.21704 0.992187,-0.21704 0.31359,0 0.607708,0.0611 0.882634,0.18345 0.274926,0.12233 0.530614,0.2727 0.766879,0.45062 0.231955,0.17792 0.438147,0.35861 0.618567,0.54209 0.184716,0.18348 0.337055,0.34198 0.457335,0.47542 h 0.283705 v -3.01067 c -0.176128,-0.1112 -0.382302,-0.23075 -0.618567,-0.35863 -0.231971,-0.13344 -0.491985,-0.253 -0.779799,-0.35864 -0.274926,-0.0945 -0.575278,-0.1697 -0.901753,-0.2253 -0.32218,-0.0612 -0.68554,-0.092 -1.089339,-0.092 z m -16.717843,0.24185 v 12.41888 h 2.332674 v -8.31526 l 1.778186,5.39605 h 1.707906 l 1.778186,-5.39605 v 8.31526 h 2.461349 v -12.41888 h -2.873726 l -2.152324,6.23011 -2.158524,-6.23011 z m 21.657076,0 v 7.93181 c 0,1.52901 0.358516,2.70184 1.075905,3.51917 0.721669,0.81733 1.785281,1.22628 3.189985,1.22628 1.404692,0 2.467798,-0.40895 3.189468,-1.22628 0.721683,-0.81733 1.082622,-1.99287 1.082622,-3.52744 v -7.92354 h -2.487187 v 7.74836 c 0,0.89517 -0.1442,1.54542 -0.432014,1.9513 -0.283519,0.40589 -0.734316,0.60875 -1.352889,0.60875 -0.627176,0 -1.080383,-0.21099 -1.359609,-0.63355 -0.279209,-0.42257 -0.419094,-1.06469 -0.419094,-1.9265 v -7.74836 z m 37.676256,0.37569 v 2.67683 h -0.95343 v 2.03502 h 0.95343 v 4.37855 c 0,1.14537 0.21916,1.95463 0.65732,2.42724 0.44246,0.47261 1.11483,0.709 2.01693,0.709 0.4038,0 0.74501,-0.0254 1.02423,-0.0754 0.27922,-0.0445 0.54356,-0.10832 0.79272,-0.19172 v -2.05982 h -0.19327 c -0.0773,0.0556 -0.21478,0.11673 -0.41238,0.18345 -0.19331,0.0667 -0.34998,0.10025 -0.47026,0.10025 -0.29211,0 -0.51559,-0.0557 -0.67024,-0.16691 -0.15035,-0.11676 -0.2556,-0.27255 -0.31574,-0.46716 -0.0645,-0.1946 -0.0991,-0.41423 -0.10336,-0.65887 -0.004,-0.24464 -0.006,-0.53082 -0.006,-0.85887 v -3.31969 h 2.17145 v -2.03502 H 115.04 v -2.67683 z m -14.556221,2.38486 c -1.245756,0 -2.218997,0.44248 -2.919201,1.32654 -0.695909,0.88405 -1.043863,2.10123 -1.043863,3.65249 0,1.54013 0.346049,2.75512 1.037661,3.64474 0.69591,0.88404 1.671056,1.32601 2.925403,1.32601 1.254353,0 2.227071,-0.44197 2.918681,-1.32601 0.69591,-0.88962 1.04387,-2.10461 1.04387,-3.64474 0,-1.54014 -0.34554,-2.75461 -1.03715,-3.64423 -0.68731,-0.88961 -1.662455,-1.3348 -2.925401,-1.3348 z m 8.927621,0 c -1.24576,0 -2.21848,0.44248 -2.91868,1.32654 -0.69591,0.88405 -1.04387,2.10123 -1.04387,3.65249 0,1.54013 0.34553,2.75512 1.03715,3.64474 0.69591,0.88404 1.67105,1.32601 2.9254,1.32601 1.25435,0 2.22759,-0.44197 2.9192,-1.32601 0.69591,-0.88962 1.04386,-2.10461 1.04386,-3.64474 1e-5,-1.54014 -0.34604,-2.75461 -1.03766,-3.64423 -0.68731,-0.88961 -1.66246,-1.3348 -2.9254,-1.3348 z m -8.927621,2.09341 c 0.22338,0 0.431461,0.0476 0.624769,0.14212 0.193307,0.0945 0.358629,0.25572 0.496093,0.48369 0.137465,0.2224 0.245137,0.51992 0.322461,0.89245 0.07732,0.37252 0.115756,0.83396 0.115756,1.38441 0,0.59493 -0.03843,1.06178 -0.115756,1.40095 -0.07303,0.3336 -0.184517,0.61978 -0.334862,0.85886 -0.13317,0.21683 -0.296584,0.37263 -0.489894,0.46715 -0.189011,0.089 -0.388954,0.13333 -0.599445,0.13333 -0.244856,0 -0.464016,-0.0498 -0.657326,-0.14986 -0.189013,-0.10009 -0.351912,-0.25858 -0.489376,-0.47543 -0.141758,-0.22795 -0.249431,-0.52819 -0.322461,-0.90072 -0.07302,-0.37808 -0.109553,-0.82276 -0.109553,-1.33428 0,-0.57269 0.04085,-1.04818 0.122473,-1.42627 0.08591,-0.37808 0.199824,-0.67561 0.341582,-0.89245 0.158941,-0.23353 0.324263,-0.38932 0.496094,-0.46716 0.176125,-0.0778 0.376068,-0.11679 0.599445,-0.11679 z m 8.927621,0 c 0.22338,0 0.43197,0.0476 0.62528,0.14212 0.19331,0.0945 0.35864,0.25572 0.4961,0.48369 0.13746,0.2224 0.24462,0.51992 0.32194,0.89245 0.0773,0.37252 0.11627,0.83396 0.11627,1.38441 0,0.59493 -0.0389,1.06178 -0.11627,1.40095 -0.073,0.3336 -0.18451,0.61978 -0.33486,0.85886 -0.13317,0.21684 -0.29658,0.37263 -0.48989,0.46715 -0.18902,0.089 -0.38896,0.13333 -0.59945,0.13333 -0.24486,0 -0.4635,-0.0498 -0.65681,-0.14986 -0.18901,-0.10009 -0.35243,-0.25858 -0.48989,-0.47543 -0.14176,-0.22796 -0.24891,-0.52819 -0.32194,-0.90072 -0.073,-0.37808 -0.10956,-0.82276 -0.10956,-1.33428 0,-0.57269 0.0403,-1.04818 0.12196,-1.42627 0.0859,-0.37808 0.19982,-0.67561 0.34158,-0.89245 0.15894,-0.23353 0.32427,-0.38932 0.49609,-0.46716 0.17613,-0.0778 0.37607,-0.11679 0.59945,-0.11679 z m -17.797364,0.20878 c 0.562742,0 0.953465,0.22504 1.172538,0.67541 0.219085,0.45036 0.328663,1.09249 0.328663,1.92649 0,0.9341 -0.150432,1.63464 -0.451136,2.10168 -0.300694,0.46705 -0.758238,0.70074 -1.372526,0.70074 -0.210482,0 -0.3907,-0.014 -0.541052,-0.0419 -0.150349,-0.0278 -0.309438,-0.0803 -0.476972,-0.15813 v -4.70411 c 0.210492,-0.16124 0.432072,-0.2835 0.66404,-0.3669 0.231971,-0.0889 0.45737,-0.13332 0.676445,-0.13332 z" />
    <path
       class="cls-1"
       d="M 125.08587,196.29875 H 46.115679 a 2.38125,2.38125 0 0 1 -2.38125,-2.38125 v -78.97813 a 2.38125,2.38125 0 0 1 2.38125,-2.38125 h 78.970191 a 2.38125,2.38125 0 0 1 2.38125,2.38125 v 78.97019 a 2.38125,2.38125 0 0 1 -2.38125,2.38919 z M 46.115679,114.14298 a 0.79374999,0.79374999 0 0 0 -0.79375,0.79375 v 78.97283 a 0.79374999,0.79374999 0 0 0 0.79375,0.79375 h 78.970191 a 0.79374999,0.79374999 0 0 0 0.79375,-0.79375 v -78.97019 a 0.79374999,0.79374999 0 0 0 -0.79375,-0.79375 z"
       id="path6"
       style="fill:none;stroke-width:0.264583" />
  </g>
</svg>
