<?xml version="1.0" encoding="UTF-8" standalone="no"?>
<svg
   id="Layer_1"
   data-name="Layer 1"
   viewBox="0 0 374.51 373.8"
   version="1.1"
   sodipodi:docname="temp.svg"
   inkscape:version="1.2.2 (b0a84865, 2022-12-01)"
   xmlns:inkscape="http://www.inkscape.org/namespaces/inkscape"
   xmlns:sodipodi="http://sodipodi.sourceforge.net/DTD/sodipodi-0.dtd"
   xmlns="http://www.w3.org/2000/svg"
   xmlns:svg="http://www.w3.org/2000/svg">
  <sodipodi:namedview
     id="namedview59"
     pagecolor="#ffffff"
     bordercolor="#000000"
     borderopacity="0.25"
     inkscape:showpageshadow="2"
     inkscape:pageopacity="0.0"
     inkscape:pagecheckerboard="0"
     inkscape:deskcolor="#d1d1d1"
     showgrid="false"
     inkscape:zoom="2.7474586"
     inkscape:cx="202.00486"
     inkscape:cy="186.89999"
     inkscape:window-width="1390"
     inkscape:window-height="1205"
     inkscape:window-x="0"
     inkscape:window-y="25"
     inkscape:window-maximized="0"
     inkscape:current-layer="Layer_1" />
  <defs
     id="defs4">
    <style
       id="style2">.cls-1,.cls-3{fill:#fff;}.cls-2{fill:#27b1d4;}.cls-3{font-size:58.53px;font-family:Lato-Bold, Lato;font-weight:700;}.cls-4{letter-spacing:-0.01em;}.cls-5{letter-spacing:0em;}.cls-6{letter-spacing:-0.03em;}.cls-7{letter-spacing:0em;}.cls-8{letter-spacing:-0.09em;}.cls-9{letter-spacing:0em;}</style>
  </defs>
  <path
     class="cls-1"
     d="M336.86,345.17H38.39a9,9,0,0,1-9-9V37.67a9,9,0,0,1,9-9H336.86a9,9,0,0,1,9,9V336.14A9,9,0,0,1,336.86,345.17ZM38.39,34.66a3,3,0,0,0-3,3V336.14a3,3,0,0,0,3,3H336.86a3,3,0,0,0,3-3V37.67a3,3,0,0,0-3-3Z"
     id="path6" />
  <path
     class="cls-1"
     d="M155.72,32.11a3,3,0,0,1-3-3V3a3,3,0,1,1,6,0V29.1A3,3,0,0,1,155.72,32.11Z"
     id="path8" />
  <path
     class="cls-1"
     d="M218.08,32.11a3,3,0,0,1-3-3V3a3,3,0,1,1,6,0V29.1A3,3,0,0,1,218.08,32.11Z"
     id="path10" />
  <path
     class="cls-1"
     d="M280.44,32.11a3,3,0,0,1-3-3V3a3,3,0,1,1,6,0V29.1A3,3,0,0,1,280.44,32.11Z"
     id="path12" />
  <path
     class="cls-1"
     d="M93.36,32.11a3,3,0,0,1-3-3V3a3,3,0,0,1,6,0V29.1A3,3,0,0,1,93.36,32.11Z"
     id="path14" />
  <path
     class="cls-1"
     d="M280.44,373.8a3,3,0,0,1-3-3V344.7a3,3,0,0,1,6,0v26.09A3,3,0,0,1,280.44,373.8Z"
     id="path16" />
  <path
     class="cls-1"
     d="M93.36,373.8a3,3,0,0,1-3-3V344.7a3,3,0,0,1,6,0v26.09A3,3,0,0,1,93.36,373.8Z"
     id="path18" />
  <path
     class="cls-1"
     d="M29.1,221.09H3a3,3,0,0,1,0-6H29.1a3,3,0,0,1,0,6Z"
     id="path20" />
  <path
     class="cls-1"
     d="M29.1,158.73H3a3,3,0,1,1,0-6H29.1a3,3,0,1,1,0,6Z"
     id="path22" />
  <path
     class="cls-1"
     d="M29.1,96.37H3a3,3,0,0,1,0-6H29.1a3,3,0,0,1,0,6Z"
     id="path24" />
  <path
     class="cls-1"
     d="M29.1,283.46H3a3,3,0,0,1,0-6H29.1a3,3,0,0,1,0,6Z"
     id="path26" />
  <path
     class="cls-1"
     d="M371.5,221.09H345.41a3,3,0,0,1,0-6H371.5a3,3,0,0,1,0,6Z"
     id="path28" />
  <path
     class="cls-1"
     d="M371.5,158.73H345.41a3,3,0,0,1,0-6H371.5a3,3,0,0,1,0,6Z"
     id="path30" />
  <path
     class="cls-1"
     d="M371.5,96.37H345.41a3,3,0,1,1,0-6H371.5a3,3,0,0,1,0,6Z"
     id="path32" />
  <path
     class="cls-1"
     d="M371.5,283.46H345.41a3,3,0,0,1,0-6H371.5a3,3,0,0,1,0,6Z"
     id="path34" />
  <path
     class="cls-1"
     d="M218.08,373.8a3,3,0,0,1-3-3V344.7a3,3,0,0,1,6,0v26.09A3,3,0,0,1,218.08,373.8Z"
     id="path36" />
  <path
     class="cls-1"
     d="M155.72,373.8a3,3,0,0,1-3-3V344.7a3,3,0,0,1,6,0v26.09A3,3,0,0,1,155.72,373.8Z"
     id="path38" />
  <rect
     class="cls-2"
     x="57.26"
     y="57.9"
     width="260"
     height="260"
     id="rect40" />
  <text
     class="cls-3"
     id="text56"
     x="43.112629"
     y="178.47279"
     transform="scale(0.85424802,1.1706202)"
     style="stroke-width:0.854247"><tspan
       class="cls-4"
       x="73.113808"
       y="178.47279"
       id="tspan42"
       style="stroke-width:0.854247">MCUboot</tspan></text>
</svg>
