<?xml version="1.0" encoding="UTF-8" standalone="no"?>
<svg
   id="Layer_1"
   data-name="Layer 1"
   viewBox="0 0 374.51 373.8"
   version="1.1"
   xmlns="http://www.w3.org/2000/svg"
   xmlns:svg="http://www.w3.org/2000/svg">
  <defs
     id="defs4">
    <style
       id="style2">.cls-1,.cls-3{fill:#fff;}.cls-2{fill:#27b1d4;}.cls-3{font-size:58.53px;font-family:Lato-Bold, Lato;font-weight:700;}.cls-4{letter-spacing:-0.01em;}.cls-5{letter-spacing:0em;}.cls-6{letter-spacing:-0.03em;}.cls-7{letter-spacing:0em;}.cls-8{letter-spacing:-0.09em;}.cls-9{letter-spacing:0em;}</style>
  </defs>
  <path
     class="cls-1"
     d="M 336.86,345.17 H 38.39 a 9,9 0 0 1 -9,-9 V 37.67 a 9,9 0 0 1 9,-9 h 298.47 a 9,9 0 0 1 9,9 v 298.47 a 9,9 0 0 1 -9,9.03 z M 38.39,34.66 a 3,3 0 0 0 -3,3 v 298.48 a 3,3 0 0 0 3,3 h 298.47 a 3,3 0 0 0 3,-3 V 37.67 a 3,3 0 0 0 -3,-3 z"
     id="path6" />
  <path
     class="cls-1"
     d="m 155.72,32.11 a 3,3 0 0 1 -3,-3 V 3 a 3,3 0 1 1 6,0 v 26.1 a 3,3 0 0 1 -3,3.01 z"
     id="path8" />
  <path
     class="cls-1"
     d="m 218.08,32.11 a 3,3 0 0 1 -3,-3 V 3 a 3,3 0 1 1 6,0 v 26.1 a 3,3 0 0 1 -3,3.01 z"
     id="path10" />
  <path
     class="cls-1"
     d="m 280.44,32.11 a 3,3 0 0 1 -3,-3 V 3 a 3,3 0 1 1 6,0 v 26.1 a 3,3 0 0 1 -3,3.01 z"
     id="path12" />
  <path
     class="cls-1"
     d="m 93.36,32.11 a 3,3 0 0 1 -3,-3 V 3 a 3,3 0 0 1 6,0 v 26.1 a 3,3 0 0 1 -3,3.01 z"
     id="path14" />
  <path
     class="cls-1"
     d="m 280.44,373.8 a 3,3 0 0 1 -3,-3 v -26.1 a 3,3 0 0 1 6,0 v 26.09 a 3,3 0 0 1 -3,3.01 z"
     id="path16" />
  <path
     class="cls-1"
     d="m 93.36,373.8 a 3,3 0 0 1 -3,-3 v -26.1 a 3,3 0 0 1 6,0 v 26.09 a 3,3 0 0 1 -3,3.01 z"
     id="path18" />
  <path
     class="cls-1"
     d="M 29.1,221.09 H 3 a 3,3 0 0 1 0,-6 h 26.1 a 3,3 0 0 1 0,6 z"
     id="path20" />
  <path
     class="cls-1"
     d="M 29.1,158.73 H 3 a 3,3 0 1 1 0,-6 h 26.1 a 3,3 0 1 1 0,6 z"
     id="path22" />
  <path
     class="cls-1"
     d="M 29.1,96.37 H 3 a 3,3 0 0 1 0,-6 h 26.1 a 3,3 0 0 1 0,6 z"
     id="path24" />
  <path
     class="cls-1"
     d="M 29.1,283.46 H 3 a 3,3 0 0 1 0,-6 h 26.1 a 3,3 0 0 1 0,6 z"
     id="path26" />
  <path
     class="cls-1"
     d="m 371.5,221.09 h -26.09 a 3,3 0 0 1 0,-6 h 26.09 a 3,3 0 0 1 0,6 z"
     id="path28" />
  <path
     class="cls-1"
     d="m 371.5,158.73 h -26.09 a 3,3 0 0 1 0,-6 h 26.09 a 3,3 0 0 1 0,6 z"
     id="path30" />
  <path
     class="cls-1"
     d="m 371.5,96.37 h -26.09 a 3,3 0 1 1 0,-6 h 26.09 a 3,3 0 0 1 0,6 z"
     id="path32" />
  <path
     class="cls-1"
     d="m 371.5,283.46 h -26.09 a 3,3 0 0 1 0,-6 h 26.09 a 3,3 0 0 1 0,6 z"
     id="path34" />
  <path
     class="cls-1"
     d="m 218.08,373.8 a 3,3 0 0 1 -3,-3 v -26.1 a 3,3 0 0 1 6,0 v 26.09 a 3,3 0 0 1 -3,3.01 z"
     id="path36" />
  <path
     class="cls-1"
     d="m 155.72,373.8 a 3,3 0 0 1 -3,-3 v -26.1 a 3,3 0 0 1 6,0 v 26.09 a 3,3 0 0 1 -3,3.01 z"
     id="path38" />
  <path
     id="rect40"
     class="cls-2"
     style="fill:#27b1d4"
     d="M 57.259998,57.900002 H 317.26 V 317.9 H 57.259998 Z" />
  <g
     aria-label="MCUboot"
     transform="scale(0.85424802,1.1706202)"
     id="text56"
     style="font-weight:700;font-size:58.53px;font-family:Lato-Bold, Lato;fill:#ffffff;stroke-width:0.854247"
     class="cls-3">
    <path
       d="M 123.15581,178.47279 H 112.2386 v -28.49336 l -7.88783,18.49068 h -7.573467 l -7.887832,-18.49068 v 28.49336 H 78.543837 v -42.55428 h 12.746279 l 9.573994,21.34859 9.54542,-21.34859 h 12.74628 z"
       style="letter-spacing:-0.01em"
       id="path402" />
    <path
       d="m 152.66431,179.30159 q -4.74413,0 -8.77379,-1.40038 -4.00107,-1.40037 -6.88756,-4.17255 -2.88649,-2.77217 -4.48692,-6.91614 -1.57185,-4.14397 -1.57185,-9.574 0,-5.0585 1.51469,-9.17389 1.51469,-4.11539 4.40118,-7.05904 2.77218,-2.82933 6.85899,-4.3726 4.11539,-1.54327 8.97383,-1.54327 2.68644,0 4.82987,0.31437 2.17201,0.28579 4.00108,0.77163 1.9148,0.54301 3.45807,1.22891 1.57185,0.65731 2.74359,1.2289 v 10.31705 h -1.25748 q -0.80021,-0.6859 -2.02911,-1.62901 -1.20033,-0.94311 -2.7436,-1.85764 -1.57185,-0.91453 -3.40091,-1.54327 -1.82906,-0.62874 -3.91534,-0.62874 -2.31491,0 -4.40118,0.74306 -2.08627,0.71447 -3.85818,2.40064 -1.68617,1.62901 -2.74359,4.31545 -1.02885,2.68643 -1.02885,6.51603 0,4.00107 1.11459,6.68751 1.14316,2.68644 2.85791,4.22971 1.74332,1.57185 3.88675,2.25775 2.14344,0.65732 4.22971,0.65732 2.00054,0 3.94392,-0.60017 1.97195,-0.60016 3.62954,-1.629 1.40038,-0.8288 2.6007,-1.77191 1.20032,-0.94311 1.97196,-1.62901 h 1.14316 v 10.17416 q -1.60043,0.71448 -3.05796,1.34322 -1.45754,0.62874 -3.05797,1.08601 -2.08627,0.60016 -3.91533,0.91453 -1.82906,0.31437 -5.02992,0.31437 z"
       style="letter-spacing:-0.01em"
       id="path404" />
    <path
       d="m 212.46665,163.06866 q 0,7.88783 -4.80129,12.08896 -4.80129,4.20113 -14.14666,4.20113 -9.34536,0 -14.14665,-4.20113 -4.77271,-4.20113 -4.77271,-12.06038 v -27.17873 h 11.03153 v 26.54999 q 0,4.42976 1.85764,6.60177 1.85764,2.17201 6.03019,2.17201 4.11539,0 6.00161,-2.08627 1.9148,-2.08628 1.9148,-6.68751 v -26.54999 h 11.03154 z"
       style="letter-spacing:-0.01em"
       id="path406" />
    <path
       d="m 255.06437,161.98265 q 0,7.57346 -4.20112,12.34617 -4.17255,4.77271 -10.43138,4.77271 -2.68643,0 -4.71555,-0.57158 -2.02911,-0.57158 -3.85818,-1.65759 l -0.42868,1.60043 h -9.85979 v -44.46908 h 10.28847 v 15.71851 q 2.37207,-1.88622 4.82987,-3.05797 2.48638,-1.17174 5.71582,-1.17174 6.08735,0 9.37395,4.40118 3.28659,4.37261 3.28659,12.08896 z m -10.60284,0.20006 q 0,-4.28687 -1.45754,-6.60178 -1.45753,-2.3149 -5.20139,-2.3149 -1.45754,0 -3.00081,0.45726 -1.54327,0.42869 -2.94365,1.25748 v 16.11862 q 1.11459,0.4001 2.11486,0.543 1.00027,0.14289 2.40064,0.14289 4.08681,0 6.08735,-2.40064 2.00054,-2.40065 2.00054,-7.20193 z"
       style="letter-spacing:-0.01em"
       id="path408" />
    <path
       d="m 294.71844,162.43992 q 0,7.91641 -4.62981,12.48907 -4.60124,4.54407 -12.94634,4.54407 -8.34509,0 -12.97491,-4.54407 -4.60123,-4.57266 -4.60123,-12.48907 0,-7.97357 4.62981,-12.51765 4.65839,-4.54408 12.94633,-4.54408 8.40226,0 12.97492,4.57266 4.60123,4.57266 4.60123,12.48907 z m -12.66054,7.80209 q 1.00027,-1.2289 1.48611,-2.94364 0.51443,-1.74333 0.51443,-4.80129 0,-2.82933 -0.51443,-4.74413 -0.51442,-1.9148 -1.42895,-3.05797 -0.91453,-1.17174 -2.20059,-1.65759 -1.28606,-0.48584 -2.77218,-0.48584 -1.48611,0 -2.65785,0.40011 -1.14317,0.4001 -2.20059,1.60043 -0.94311,1.11458 -1.5147,3.05796 -0.543,1.94338 -0.543,4.88703 0,2.62927 0.48585,4.57265 0.48584,1.9148 1.42895,3.08655 0.91453,1.11458 2.17201,1.629 1.28606,0.51443 2.91507,0.51443 1.40038,0 2.65786,-0.45727 1.28606,-0.48584 2.17201,-1.60043 z"
       style="letter-spacing:-0.01em"
       id="path410" />
    <path
       d="m 334.31536,162.43992 q 0,7.91641 -4.62981,12.48907 -4.60124,4.54407 -12.94633,4.54407 -8.3451,0 -12.97491,-4.54407 -4.60124,-4.57266 -4.60124,-12.48907 0,-7.97357 4.62981,-12.51765 4.6584,-4.54408 12.94634,-4.54408 8.40225,0 12.97491,4.57266 4.60123,4.57266 4.60123,12.48907 z m -12.66054,7.80209 q 1.00027,-1.2289 1.48612,-2.94364 0.51442,-1.74333 0.51442,-4.80129 0,-2.82933 -0.51442,-4.74413 -0.51443,-1.9148 -1.42896,-3.05797 -0.91453,-1.17174 -2.20059,-1.65759 -1.28606,-0.48584 -2.77217,-0.48584 -1.48612,0 -2.65786,0.40011 -1.14316,0.4001 -2.20059,1.60043 -0.94311,1.11458 -1.51469,3.05796 -0.54301,1.94338 -0.54301,4.88703 0,2.62927 0.48585,4.57265 0.48584,1.9148 1.42895,3.08655 0.91454,1.11458 2.17202,1.629 1.28606,0.51443 2.91506,0.51443 1.40038,0 2.65786,-0.45727 1.28606,-0.48584 2.17201,-1.60043 z"
       style="letter-spacing:-0.01em"
       id="path412" />
    <path
       d="m 361.62327,178.187 q -1.65758,0.42869 -3.51522,0.65732 -1.85765,0.25721 -4.54408,0.25721 -6.00161,0 -8.94526,-2.42922 -2.91507,-2.42922 -2.91507,-8.31652 v -15.00403 h -4.22971 v -6.9733 h 4.22971 v -9.17389 h 10.28848 v 9.17389 h 9.63115 v 6.9733 h -9.63115 v 11.37449 q 0,1.68616 0.0286,2.94364 0.0286,1.25748 0.45726,2.25775 0.40011,1.00027 1.40038,1.60043 1.02885,0.57158 2.97223,0.57158 0.80021,0 2.08627,-0.34295 1.31464,-0.34294 1.82906,-0.62874 h 0.85737 z"
       style="letter-spacing:-0.01em"
       id="path414" />
  </g>
</svg>
