<?xml version="1.0" encoding="UTF-8" standalone="no"?>
<!-- Generator: Adobe Illustrator 25.2.3, SVG Export Plug-In . SVG Version: 6.00 Build 0)  -->

<svg
   version="1.1"
   id="Layer_1"
   x="0px"
   y="0px"
   viewBox="0 0 79.6 79.5"
   style="enable-background:new 0 0 79.6 79.5;"
   xml:space="preserve"
   xmlns="http://www.w3.org/2000/svg"
   xmlns:svg="http://www.w3.org/2000/svg"><defs
   id="defs46" />
<style
   type="text/css"
   id="style2">
	.st0{opacity:0.8;fill:#11A9D4;enable-background:new    ;}
	.st1{fill:#FFFFFF;}
	.st2{font-family:'Lato-Bold';}
	.st3{font-size:12px;}
</style>
<g
   id="Layer_1_1_">
	<rect
   x="12.1"
   y="12"
   class="st0"
   width="55.4"
   height="55.4"
   id="rect4" />
	
	
	
	
	
	
	
	
	
	
	
	
	
	
	
	
	
	
<path
   id="path6"
   class="st1"
   d="M 19.900391 0 C 19.600391 -7.4014794e-17 19.300781 0.19960978 19.300781 0.59960938 L 19.300781 6.0996094 L 8.1992188 6.0996094 C 7.1992198 6.0996094 6.3007812 6.9000011 6.3007812 8 L 6.3007812 19.306641 C 6.2686065 19.302177 6.2345066 19.300781 6.1992188 19.300781 L 0.59960938 19.300781 C 0.29960968 19.300781 0 19.500391 0 19.900391 C -7.4014794e-17 20.20039 0.19960977 20.5 0.59960938 20.5 L 6.1992188 20.5 C 6.2328431 20.5 6.2675793 20.495396 6.3007812 20.488281 L 6.3007812 32.607422 C 6.2686065 32.602958 6.2345066 32.599609 6.1992188 32.599609 L 0.59960938 32.599609 C 0.29960968 32.599609 0 32.799219 0 33.199219 C -7.4014794e-17 33.499218 0.19960977 33.800781 0.59960938 33.800781 L 6.1992188 33.800781 C 6.2328431 33.800781 6.2675793 33.796177 6.3007812 33.789062 L 6.3007812 45.806641 C 6.2686065 45.802177 6.2345066 45.800781 6.1992188 45.800781 L 0.59960938 45.800781 C 0.29960968 45.800781 0 46.000391 0 46.400391 C -7.4014794e-17 46.70039 0.29960968 47 0.59960938 47 L 6.1992188 47 C 6.2328431 47 6.2675793 46.995396 6.3007812 46.988281 L 6.3007812 59.007812 C 6.2686065 59.003349 6.2345066 59 6.1992188 59 L 0.59960938 59 C 0.29960968 59 0 59.29961 0 59.599609 C -7.4014794e-17 59.999609 0.29960968 60.300781 0.59960938 60.300781 L 6.1992188 60.300781 C 6.2328431 60.300781 6.2675793 60.296318 6.3007812 60.289062 L 6.3007812 71.5 C 6.3007812 72.499999 7.0992199 73.400391 8.1992188 73.400391 L 19.300781 73.400391 L 19.300781 78.900391 C 19.300781 79.20039 19.500391 79.5 19.900391 79.5 C 20.20039 79.5 20.5 79.2 20.5 79 L 20.5 73.400391 L 32.5 73.400391 L 32.5 78.900391 C 32.5 79.20039 32.79961 79.5 33.099609 79.5 C 33.499609 79.5 33.799219 79.2 33.699219 79 L 33.699219 73.400391 L 45.800781 73.400391 L 45.800781 78.900391 C 45.800781 79.20039 46.100391 79.5 46.400391 79.5 C 46.70039 79.5 47 79.2 47 79 L 47 73.400391 L 59 73.400391 L 59 78.900391 C 59 79.20039 59.19961 79.5 59.599609 79.5 C 59.999609 79.5 60.299219 79.2 60.199219 79 L 60.199219 73.400391 L 71.599609 73.400391 C 72.699608 73.400391 73.599609 72.499999 73.599609 71.5 L 73.599609 60.300781 L 79 60.300781 C 79.4 60.300781 79.599609 59.999218 79.599609 59.699219 C 79.599609 59.399219 79.4 59.099609 79 59.099609 L 73.599609 59.099609 L 73.599609 47 L 79 47 C 79.4 47 79.599609 46.70039 79.599609 46.400391 C 79.599609 46.100391 79.4 45.800781 79 45.800781 L 73.599609 45.800781 L 73.599609 33.800781 L 79 33.800781 C 79.4 33.800781 79.599609 33.499218 79.599609 33.199219 C 79.599609 32.899219 79.4 32.599609 79 32.599609 L 73.599609 32.599609 L 73.599609 20.5 L 79 20.5 C 79.4 20.5 79.599609 20.20039 79.599609 19.900391 C 79.599609 19.600391 79.4 19.300781 79 19.300781 L 73.599609 19.300781 L 73.599609 8 C 73.599609 7.000001 72.799218 6.0996094 71.699219 6.0996094 L 60.199219 6.0996094 L 60.199219 0.59960938 C 60.199219 0.29960968 59.999609 0 59.599609 0 C 59.29961 -7.4014794e-17 59 0.29960968 59 0.59960938 L 59 6.0996094 L 47 6.0996094 L 47 0.59960938 C 47 0.29960968 46.70039 0 46.400391 0 C 46.000391 -7.4014794e-17 45.700781 0.29960968 45.800781 0.59960938 L 45.800781 6.0996094 L 33.699219 6.0996094 L 33.699219 0.59960938 C 33.699219 0.29960968 33.499609 0 33.099609 0 C 32.79961 -7.4014794e-17 32.5 0.19960977 32.5 0.59960938 L 32.5 6.0996094 L 20.5 6.0996094 L 20.5 0.59960938 C 20.5 0.29960968 20.30039 0 19.900391 0 z M 8.1992188 7.4003906 L 71.599609 7.4003906 C 71.899609 7.4003906 72.199219 7.6000004 72.199219 8 L 72.199219 71.5 C 72.199219 71.8 71.999609 72.099609 71.599609 72.099609 L 8.0996094 72.099609 C 7.7996097 72.099609 7.5 71.9 7.5 71.5 L 7.5 8 C 7.5 7.7000003 7.7992192 7.4003906 8.1992188 7.4003906 z M 42.378906 34.763672 L 42.378906 43.880859 L 43.410156 43.880859 L 43.480469 43.576172 C 43.75 43.724609 44.023438 43.841797 44.300781 43.927734 C 44.578125 44.017578 44.902344 44.0625 45.273438 44.0625 C 45.671875 44.0625 46.03711 43.986328 46.369141 43.833984 C 46.701172 43.677735 47.00586 43.445312 47.283203 43.136719 C 47.544922 42.839844 47.751953 42.472656 47.904297 42.035156 C 48.060547 41.597657 48.138672 41.105468 48.138672 40.558594 C 48.138672 39.476564 47.914062 38.638671 47.464844 38.044922 C 47.019532 37.451172 46.410155 37.154297 45.636719 37.154297 C 45.203125 37.154297 44.8125 37.236328 44.464844 37.400391 C 44.117188 37.560547 43.789062 37.767578 43.480469 38.021484 L 43.480469 34.763672 L 42.378906 34.763672 z M 29.083984 34.998047 C 28.44336 34.998047 27.859374 35.097656 27.332031 35.296875 C 26.808594 35.496094 26.361328 35.785157 25.990234 36.164062 C 25.607422 36.554687 25.314453 37.033204 25.111328 37.599609 C 24.908203 38.166015 24.806641 38.808594 24.806641 39.527344 C 24.806641 40.285155 24.91211 40.951172 25.123047 41.525391 C 25.333984 42.095703 25.626953 42.566407 26.001953 42.9375 C 26.384765 43.316406 26.833985 43.595703 27.349609 43.775391 C 27.86914 43.951172 28.445313 44.039062 29.078125 44.039062 C 29.414062 44.039062 29.720703 44.011719 29.998047 43.957031 C 30.279297 43.90625 30.539063 43.84375 30.777344 43.769531 C 31.058593 43.679688 31.285156 43.59375 31.457031 43.511719 C 31.632812 43.429688 31.828125 43.341797 32.042969 43.248047 L 32.042969 41.888672 L 31.960938 41.888672 C 31.535157 42.271484 31.078125 42.558594 30.589844 42.75 C 30.101563 42.941406 29.578124 43.037109 29.019531 43.037109 C 28.613282 43.037109 28.226562 42.96875 27.859375 42.832031 C 27.496094 42.691406 27.177734 42.476562 26.904297 42.1875 C 26.642578 41.910157 26.427734 41.550781 26.259766 41.109375 C 26.095703 40.667969 26.013672 40.140624 26.013672 39.527344 C 26.013672 38.941407 26.087891 38.425781 26.236328 37.980469 C 26.388672 37.53125 26.59961 37.160156 26.869141 36.867188 C 27.146484 36.566407 27.460938 36.345703 27.8125 36.205078 C 28.167968 36.060547 28.566407 35.988281 29.007812 35.988281 C 29.546874 35.988281 30.052735 36.080078 30.525391 36.263672 C 30.998046 36.447265 31.47461 36.740235 31.955078 37.142578 L 32.042969 37.142578 L 32.042969 35.765625 C 31.472657 35.480469 30.953125 35.28125 30.484375 35.167969 C 30.019532 35.054688 29.552734 34.998047 29.083984 34.998047 z M 15.191406 35.15625 L 15.191406 43.880859 L 16.275391 43.880859 L 16.275391 36.363281 L 18.683594 41.478516 L 19.375 41.478516 L 21.800781 36.363281 L 21.800781 43.880859 L 22.960938 43.880859 L 22.960938 35.15625 L 21.349609 35.15625 L 19.099609 40.013672 L 16.773438 35.15625 L 15.191406 35.15625 z M 33.554688 35.15625 L 33.554688 40.376953 C 33.554688 41.037109 33.623047 41.59375 33.759766 42.046875 C 33.90039 42.5 34.128907 42.886719 34.445312 43.207031 C 34.722656 43.488281 35.064454 43.701172 35.470703 43.845703 C 35.876953 43.990234 36.353516 44.0625 36.900391 44.0625 C 37.435546 44.0625 37.904297 43.99414 38.306641 43.857422 C 38.708984 43.720703 39.060547 43.503906 39.361328 43.207031 C 39.677734 42.894532 39.904297 42.503906 40.041016 42.035156 C 40.18164 41.5625 40.251953 41.009765 40.251953 40.376953 L 40.251953 35.15625 L 39.091797 35.15625 L 39.091797 40.464844 C 39.091797 40.890625 39.058594 41.248047 38.992188 41.537109 C 38.929688 41.822265 38.822265 42.076172 38.669922 42.298828 C 38.494141 42.55664 38.259765 42.75 37.966797 42.878906 C 37.673828 43.003906 37.318359 43.066406 36.900391 43.066406 C 36.486329 43.066406 36.130859 43.001953 35.833984 42.873047 C 35.541016 42.744141 35.308594 42.552734 35.136719 42.298828 C 34.984375 42.076172 34.875 41.828125 34.808594 41.554688 C 34.746094 41.28125 34.714844 40.908203 34.714844 40.435547 L 34.714844 35.15625 L 33.554688 35.15625 z M 64.445312 35.455078 L 64.445312 37.335938 L 63.701172 37.335938 L 63.701172 38.261719 L 64.445312 38.261719 L 64.445312 41.742188 C 64.445312 42.535155 64.619141 43.111328 64.966797 43.470703 C 65.314453 43.830078 65.822266 44.009766 66.490234 44.009766 C 66.68164 44.009766 66.898438 43.992187 67.140625 43.957031 C 67.386719 43.921875 67.613281 43.876953 67.820312 43.822266 L 67.820312 42.832031 L 67.761719 42.832031 C 67.675781 42.867187 67.535156 42.912109 67.339844 42.966797 C 67.144531 43.017578 66.957031 43.042969 66.777344 43.042969 C 66.46875 43.042969 66.238281 43.007812 66.085938 42.9375 C 65.9375 42.863281 65.820312 42.748047 65.734375 42.591797 C 65.640625 42.423828 65.585937 42.24414 65.570312 42.052734 C 65.554688 41.857422 65.546875 41.58789 65.546875 41.244141 L 65.546875 38.261719 L 67.820312 38.261719 L 67.820312 37.335938 L 65.546875 37.335938 L 65.546875 35.455078 L 64.445312 35.455078 z M 52.416016 37.154297 C 51.490235 37.154297 50.753906 37.464844 50.207031 38.085938 C 49.664063 38.703124 49.392578 39.544923 49.392578 40.611328 C 49.392578 41.677733 49.664063 42.519532 50.207031 43.136719 C 50.753906 43.753906 51.490235 44.0625 52.416016 44.0625 C 53.333983 44.0625 54.066407 43.753906 54.613281 43.136719 C 55.160156 42.519532 55.433594 41.677733 55.433594 40.611328 C 55.433594 39.544923 55.160156 38.703124 54.613281 38.085938 C 54.066407 37.464844 53.333983 37.154297 52.416016 37.154297 z M 59.699219 37.154297 C 58.773438 37.154297 58.037109 37.464844 57.490234 38.085938 C 56.947266 38.703124 56.675781 39.544923 56.675781 40.611328 C 56.675781 41.677733 56.947266 42.519532 57.490234 43.136719 C 58.037109 43.753906 58.773438 44.0625 59.699219 44.0625 C 60.617187 44.0625 61.34961 43.753906 61.896484 43.136719 C 62.443359 42.519532 62.716797 41.677733 62.716797 40.611328 C 62.716797 39.544923 62.443359 38.703124 61.896484 38.085938 C 61.34961 37.464844 60.617187 37.154297 59.699219 37.154297 z M 52.416016 38.103516 C 53.005859 38.103516 53.466797 38.310547 53.798828 38.724609 C 54.130859 39.134765 54.296875 39.763673 54.296875 40.611328 C 54.296875 41.439452 54.128906 42.064454 53.792969 42.486328 C 53.460938 42.904296 53.001953 43.113281 52.416016 43.113281 C 51.822266 43.113281 51.359375 42.902343 51.027344 42.480469 C 50.695313 42.054688 50.529297 41.43164 50.529297 40.611328 C 50.529297 39.763673 50.69336 39.134765 51.021484 38.724609 C 51.353515 38.310547 51.81836 38.103516 52.416016 38.103516 z M 59.699219 38.103516 C 60.289062 38.103516 60.75 38.310547 61.082031 38.724609 C 61.414062 39.134765 61.580078 39.763673 61.580078 40.611328 C 61.580078 41.439452 61.412109 42.064454 61.076172 42.486328 C 60.744141 42.904296 60.285156 43.113281 59.699219 43.113281 C 59.105469 43.113281 58.642578 42.902343 58.310547 42.480469 C 57.978516 42.054688 57.8125 41.43164 57.8125 40.611328 C 57.8125 39.763673 57.976563 39.134765 58.304688 38.724609 C 58.636718 38.310547 59.101563 38.103516 59.699219 38.103516 z M 45.367188 38.203125 C 45.941406 38.203125 46.357422 38.40625 46.615234 38.8125 C 46.873047 39.214843 47.001953 39.806641 47.001953 40.587891 C 47.001953 41.443359 46.828125 42.072266 46.480469 42.474609 C 46.136719 42.873046 45.660156 43.072266 45.050781 43.072266 C 44.765625 43.072266 44.509765 43.044922 44.283203 42.990234 C 44.060547 42.935547 43.792968 42.83789 43.480469 42.697266 L 43.480469 38.947266 C 43.761718 38.728516 44.066407 38.550781 44.394531 38.414062 C 44.722656 38.273438 45.046875 38.203125 45.367188 38.203125 z " /></g>
</svg>
