<svg  xmlns="http://www.w3.org/2000/svg" viewBox="0 0 79.64 79.49"><defs><style>.cls-1{fill:#11a9d4;opacity:0.8;}.cls-2,.cls-3{fill:#fff;}.cls-3{font-size:12.4px;font-family:Lato-Bold, Lato;font-weight:700;letter-spacing:0.03em;}.cls-4{letter-spacing:0.02em;}.cls-5{letter-spacing:0.03em;}.cls-6{letter-spacing:0em;}</style></defs><g id="Layer_1" data-name="Layer 1"><rect class="cls-1" x="12.13" y="12.05" width="55.39" height="55.39"/><path class="cls-2" d="M71.64,73.4H8.16a1.93,1.93,0,0,1-1.92-1.92V8A1.93,1.93,0,0,1,8.16,6.09H71.64A1.92,1.92,0,0,1,73.56,8V71.48A1.92,1.92,0,0,1,71.64,73.4ZM8.16,7.37A.64.64,0,0,0,7.52,8V71.48a.64.64,0,0,0,.64.64H71.64a.64.64,0,0,0,.64-.64V8a.64.64,0,0,0-.64-.64Z"/><path class="cls-2" d="M33.12,6.83a.64.64,0,0,1-.64-.64V.64A.64.64,0,0,1,33.12,0a.64.64,0,0,1,.64.64V6.19A.64.64,0,0,1,33.12,6.83Z"/><path class="cls-2" d="M46.38,6.83a.64.64,0,0,1-.64-.64V.64A.64.64,0,0,1,46.38,0,.64.64,0,0,1,47,.64V6.19A.64.64,0,0,1,46.38,6.83Z"/><path class="cls-2" d="M59.64,6.83A.64.64,0,0,1,59,6.19V.64a.64.64,0,0,1,1.28,0V6.19A.64.64,0,0,1,59.64,6.83Z"/><path class="cls-2" d="M19.85,6.83a.64.64,0,0,1-.64-.64V.64A.64.64,0,0,1,19.85,0a.64.64,0,0,1,.64.64V6.19A.64.64,0,0,1,19.85,6.83Z"/><path class="cls-2" d="M59.64,79.49a.64.64,0,0,1-.64-.64V73.3a.64.64,0,0,1,1.28,0v5.55A.64.64,0,0,1,59.64,79.49Z"/><path class="cls-2" d="M19.85,79.49a.64.64,0,0,1-.64-.64V73.3a.64.64,0,0,1,.64-.64.64.64,0,0,1,.64.64v5.55A.63.63,0,0,1,19.85,79.49Z"/><path class="cls-2" d="M6.19,47H.64A.64.64,0,0,1,0,46.38a.64.64,0,0,1,.64-.64H6.19a.64.64,0,0,1,.64.64A.64.64,0,0,1,6.19,47Z"/><path class="cls-2" d="M6.19,33.76H.64A.64.64,0,0,1,0,33.12a.64.64,0,0,1,.64-.64H6.19a.64.64,0,0,1,.64.64A.64.64,0,0,1,6.19,33.76Z"/><path class="cls-2" d="M6.19,20.49H.64A.64.64,0,0,1,0,19.85a.64.64,0,0,1,.64-.64H6.19a.64.64,0,0,1,.64.64A.64.64,0,0,1,6.19,20.49Z"/><path class="cls-2" d="M6.19,60.28H.64A.64.64,0,0,1,.64,59H6.19a.64.64,0,0,1,0,1.28Z"/><path class="cls-2" d="M79,47H73.46a.64.64,0,1,1,0-1.28H79A.64.64,0,0,1,79,47Z"/><path class="cls-2" d="M79,33.76H73.46a.64.64,0,1,1,0-1.28H79a.64.64,0,0,1,0,1.28Z"/><path class="cls-2" d="M79,20.49H73.46a.64.64,0,0,1,0-1.28H79a.64.64,0,0,1,0,1.28Z"/><path class="cls-2" d="M79,60.28H73.46a.64.64,0,0,1,0-1.28H79a.64.64,0,0,1,0,1.28Z"/><path class="cls-2" d="M46.38,79.49a.63.63,0,0,1-.64-.64V73.3a.64.64,0,0,1,.64-.64.64.64,0,0,1,.64.64v5.55A.64.64,0,0,1,46.38,79.49Z"/><path class="cls-2" d="M33.12,79.49a.63.63,0,0,1-.64-.64V73.3a.64.64,0,0,1,.64-.64.64.64,0,0,1,.64.64v5.55A.64.64,0,0,1,33.12,79.49Z"/><text class="cls-3" transform="translate(25.8 43.88)">T<tspan class="cls-4" x="7.81" y="0">F</tspan><tspan class="cls-5" x="15.02" y="0">-</tspan><tspan class="cls-6" x="20.01" y="0">A</tspan></text></g></svg>