<?xml version="1.0" encoding="UTF-8" standalone="no"?>
<svg
   id="Layer_1"
   data-name="Layer 1"
   viewBox="0 0 374.51 373.8"
   version="1.1"
   sodipodi:docname="TF_Icon_MCUboot.svg"
   inkscape:version="1.2.2 (b0a8486, 2022-12-01)"
   xmlns:inkscape="http://www.inkscape.org/namespaces/inkscape"
   xmlns:sodipodi="http://sodipodi.sourceforge.net/DTD/sodipodi-0.dtd"
   xmlns="http://www.w3.org/2000/svg"
   xmlns:svg="http://www.w3.org/2000/svg">
  <sodipodi:namedview
     id="namedview152"
     pagecolor="#ffffff"
     bordercolor="#000000"
     borderopacity="0.25"
     inkscape:showpageshadow="2"
     inkscape:pageopacity="0.0"
     inkscape:pagecheckerboard="0"
     inkscape:deskcolor="#d1d1d1"
     showgrid="false"
     inkscape:zoom="2.7474586"
     inkscape:cx="141.4034"
     inkscape:cy="190.72171"
     inkscape:window-width="1452"
     inkscape:window-height="1205"
     inkscape:window-x="26"
     inkscape:window-y="23"
     inkscape:window-maximized="0"
     inkscape:current-layer="layer1" />
  <defs
     id="defs103">
    <style
       id="style101">.cls-1,.cls-3{fill:#fff;}.cls-2{fill:#27b1d4;}.cls-3{font-size:57px;font-family:Lato-Bold, Lato;font-weight:700;letter-spacing:-0.01em;}.cls-4{letter-spacing:-0.02em;}.cls-5{letter-spacing:-0.01em;}.cls-6{letter-spacing:-0.02em;}</style>
  </defs>
  <g
     inkscape:groupmode="layer"
     id="layer1"
     inkscape:label="Layer 1">
    <rect
       class="cls-2"
       x="57.26"
       y="57.9"
       width="260"
       height="260"
       id="rect139" />
    <path
       class="cls-1"
       d="M336.86,345.17H38.39a9,9,0,0,1-9-9V37.67a9,9,0,0,1,9-9H336.86a9,9,0,0,1,9,9V336.14A9,9,0,0,1,336.86,345.17ZM38.39,34.66a3,3,0,0,0-3,3V336.14a3,3,0,0,0,3,3H336.86a3,3,0,0,0,3-3V37.67a3,3,0,0,0-3-3Z"
       id="path105" />
    <path
       class="cls-1"
       d="M155.72,32.11a3,3,0,0,1-3-3V3a3,3,0,1,1,6,0V29.1A3,3,0,0,1,155.72,32.11Z"
       id="path107" />
    <path
       class="cls-1"
       d="M218.08,32.11a3,3,0,0,1-3-3V3a3,3,0,1,1,6,0V29.1A3,3,0,0,1,218.08,32.11Z"
       id="path109" />
    <path
       class="cls-1"
       d="M280.44,32.11a3,3,0,0,1-3-3V3a3,3,0,1,1,6,0V29.1A3,3,0,0,1,280.44,32.11Z"
       id="path111" />
    <path
       class="cls-1"
       d="M93.36,32.11a3,3,0,0,1-3-3V3a3,3,0,0,1,6,0V29.1A3,3,0,0,1,93.36,32.11Z"
       id="path113" />
    <path
       class="cls-1"
       d="M280.44,373.8a3,3,0,0,1-3-3V344.7a3,3,0,0,1,6,0v26.09A3,3,0,0,1,280.44,373.8Z"
       id="path115" />
    <path
       class="cls-1"
       d="M93.36,373.8a3,3,0,0,1-3-3V344.7a3,3,0,0,1,6,0v26.09A3,3,0,0,1,93.36,373.8Z"
       id="path117" />
    <path
       class="cls-1"
       d="M29.1,221.09H3a3,3,0,0,1,0-6H29.1a3,3,0,0,1,0,6Z"
       id="path119" />
    <path
       class="cls-1"
       d="M29.1,158.73H3a3,3,0,1,1,0-6H29.1a3,3,0,1,1,0,6Z"
       id="path121" />
    <path
       class="cls-1"
       d="M29.1,96.37H3a3,3,0,0,1,0-6H29.1a3,3,0,0,1,0,6Z"
       id="path123" />
    <path
       class="cls-1"
       d="M29.1,283.46H3a3,3,0,0,1,0-6H29.1a3,3,0,0,1,0,6Z"
       id="path125" />
    <path
       class="cls-1"
       d="M371.5,221.09H345.41a3,3,0,0,1,0-6H371.5a3,3,0,0,1,0,6Z"
       id="path127" />
    <path
       class="cls-1"
       d="M371.5,158.73H345.41a3,3,0,0,1,0-6H371.5a3,3,0,0,1,0,6Z"
       id="path129" />
    <path
       class="cls-1"
       d="M371.5,96.37H345.41a3,3,0,1,1,0-6H371.5a3,3,0,0,1,0,6Z"
       id="path131" />
    <path
       class="cls-1"
       d="M371.5,283.46H345.41a3,3,0,0,1,0-6H371.5a3,3,0,0,1,0,6Z"
       id="path133" />
    <path
       class="cls-1"
       d="M218.08,373.8a3,3,0,0,1-3-3V344.7a3,3,0,0,1,6,0v26.09A3,3,0,0,1,218.08,373.8Z"
       id="path135" />
    <path
       class="cls-1"
       d="M155.72,373.8a3,3,0,0,1-3-3V344.7a3,3,0,0,1,6,0v26.09A3,3,0,0,1,155.72,373.8Z"
       id="path137" />
    <text
       class="cls-3"
       transform="matrix(0.97,0,0,1,67.07,205.24)"
       id="text149">MC<tspan
   class="cls-4"
   x="90.32"
   y="0"
   id="tspan141">U</tspan><tspan
   class="cls-5"
   x="131.53"
   y="0"
   id="tspan143">bo</tspan><tspan
   class="cls-6"
   x="195.37"
   y="0"
   id="tspan145">o</tspan><tspan
   x="226.91"
   y="0"
   id="tspan147">t</tspan></text>
  </g>
</svg>
