<?xml version="1.0" encoding="UTF-8" standalone="no"?>
<svg
   id="Layer_1"
   data-name="Layer 1"
   viewBox="0 0 374.51 373.8"
   version="1.1"
   sodipodi:docname="TF_Icon_MCUboot.svg"
   inkscape:export-filename="MCUboot.svg"
   inkscape:export-xdpi="96"
   inkscape:export-ydpi="96"
   inkscape:version="1.2.2 (b0a84865, 2022-12-01)"
   xmlns:inkscape="http://www.inkscape.org/namespaces/inkscape"
   xmlns:sodipodi="http://sodipodi.sourceforge.net/DTD/sodipodi-0.dtd"
   xmlns="http://www.w3.org/2000/svg"
   xmlns:svg="http://www.w3.org/2000/svg">
  <sodipodi:namedview
     id="namedview53"
     pagecolor="#ffffff"
     bordercolor="#000000"
     borderopacity="0.25"
     inkscape:showpageshadow="2"
     inkscape:pageopacity="0.0"
     inkscape:pagecheckerboard="0"
     inkscape:deskcolor="#d1d1d1"
     showgrid="false"
     inkscape:zoom="2.7474586"
     inkscape:cx="131.03018"
     inkscape:cy="194.54342"
     inkscape:window-width="1655"
     inkscape:window-height="1205"
     inkscape:window-x="546"
     inkscape:window-y="69"
     inkscape:window-maximized="0"
     inkscape:current-layer="Layer_1" />
  <defs
     id="defs4">
    <style
       id="style2">.cls-1,.cls-3{fill:#fff;}.cls-2{fill:#27b1d4;}.cls-3{font-size:57px;font-family:Lato-Bold, Lato;font-weight:700;letter-spacing:-0.01em;}.cls-4{letter-spacing:-0.02em;}.cls-5{letter-spacing:-0.01em;}.cls-6{letter-spacing:-0.02em;}</style>
  </defs>
  <rect
     class="cls-2"
     x="57.26"
     y="57.9"
     width="260"
     height="260"
     id="rect40"
     style="fill-opacity:1;fill:#27b1d4" />
  <g
     aria-label="MCUboot"
     transform="scale(0.88294814,1.1325693)"
     id="text50"
     style="font-weight:700;font-size:57px;line-height:0;font-family:Lato-Bold, Lato;letter-spacing:-0.01em;fill:#ffffff;stroke-width:0.882948"
     class="cls-3">
    <path
       id="path3689"
       d="M 213.8897 137.58816 L 213.8897 180.89573 L 223.49221 180.89573 L 223.91029 179.33678 C 225.09779 180.04186 226.34896 180.57982 227.66635 180.95092 C 228.98373 181.32201 230.51442 181.50793 232.25856 181.50793 C 236.32204 181.50793 239.70953 179.95729 242.41851 176.85866 C 245.14604 173.76003 246.50859 169.75238 246.50859 164.83539 C 246.50859 159.82563 245.44375 155.90103 243.30996 153.06217 C 241.17617 150.20475 238.13298 148.77677 234.18083 148.77677 C 232.08416 148.77677 230.22736 149.15765 228.6131 149.91839 C 227.0174 150.67914 225.45033 151.67201 223.91029 152.89662 L 223.91029 137.58816 L 213.8897 137.58816 z M 146.81373 138.64528 C 143.65943 138.64528 140.74579 139.1471 138.07392 140.14905 C 135.4206 141.15101 133.19555 142.56995 131.39574 144.40686 C 129.52172 146.318 128.09219 148.61061 127.10879 151.28248 C 126.12539 153.95435 125.63335 156.93125 125.63335 160.21543 C 125.63335 163.74082 126.14358 166.84942 127.16409 169.53985 C 128.20315 172.23028 129.66108 174.47425 131.5351 176.27405 C 133.40912 178.07385 135.64438 179.42954 138.24203 180.33872 C 140.85824 181.2479 143.7071 181.7028 146.78718 181.7028 C 148.86531 181.7028 150.49716 181.59994 151.68466 181.39584 C 152.87216 181.19174 154.14375 180.89565 155.49823 180.50599 C 156.5373 180.20912 157.52937 179.85535 158.47565 179.44715 C 159.42194 179.03894 160.414 178.60383 161.45307 178.13997 L 161.45307 168.23094 L 160.34041 168.23094 C 159.83943 168.67626 159.19964 169.20519 158.42035 169.81749 C 157.64105 170.4298 156.79673 171.00564 155.88755 171.54372 C 154.81138 172.21169 153.63297 172.74062 152.3527 173.13027 C 151.09099 173.51992 149.81141 173.71488 148.51258 173.71488 C 147.15809 173.71488 145.78535 173.50012 144.39374 173.07336 C 143.00215 172.62805 141.73855 171.89512 140.60672 170.87462 C 139.49343 169.87266 138.56614 168.50063 137.82396 166.75649 C 137.10032 165.01235 136.73784 162.84067 136.73784 160.24302 C 136.73784 157.75669 137.07193 155.6427 137.7399 153.89856 C 138.42642 152.15442 139.31733 150.75354 140.41205 149.69593 C 141.56245 148.60121 142.81583 147.82136 144.17033 147.3575 C 145.52482 146.87507 146.95435 146.6332 148.45728 146.6332 C 149.81177 146.6332 151.08114 146.8372 152.26864 147.2454 C 153.45614 147.6536 154.56178 148.15542 155.58229 148.74918 C 156.58424 149.34292 157.47294 149.94588 158.25223 150.55818 C 159.05009 151.17049 159.71027 151.69943 160.22981 152.14473 L 161.45307 152.14473 L 161.45307 142.09775 C 160.69232 141.72665 159.80142 141.3277 158.78091 140.90094 C 157.77896 140.45563 156.65733 140.05667 155.41417 139.70413 C 154.22668 139.3887 152.92891 139.13779 151.51876 138.95225 C 150.12716 138.74815 148.55786 138.64528 146.81373 138.64528 z M 74.603582 139.45235 L 74.603582 180.89573 L 84.679467 180.89573 L 84.679467 153.14667 L 92.359703 171.15399 L 99.734676 171.15399 L 107.41712 153.14667 L 107.41712 180.89573 L 118.04823 180.89573 L 118.04823 139.45235 L 105.63642 139.45235 L 96.33918 160.24302 L 87.015392 139.45235 L 74.603582 139.45235 z M 168.14894 139.45235 L 168.14894 165.92183 C 168.14894 171.02436 169.69783 174.93819 172.79646 177.66573 C 175.91364 180.39327 180.50573 181.75799 186.5731 181.75799 C 192.64048 181.75799 197.23256 180.39327 200.34975 177.66573 C 203.46693 174.93819 205.02602 171.01532 205.02602 165.89424 L 205.02602 139.45235 L 194.2821 139.45235 L 194.2821 165.30963 C 194.2821 168.29692 193.6605 170.46688 192.41734 171.82137 C 191.19273 173.17586 189.24498 173.85284 186.5731 173.85284 C 183.86413 173.85284 181.90617 173.14875 180.70011 171.73859 C 179.49406 170.32844 178.89066 168.1856 178.89066 165.30963 L 178.89066 139.45235 L 168.14894 139.45235 z M 330.885 140.70607 L 330.885 149.63902 L 326.76395 149.63902 L 326.76395 156.43014 L 330.885 156.43014 L 330.885 171.04189 C 330.885 174.86416 331.83048 177.56476 333.72306 179.14191 C 335.63419 180.71906 338.53763 181.50793 342.43411 181.50793 C 344.17825 181.50793 345.65437 181.42315 346.86042 181.25615 C 348.06648 181.10771 349.2063 180.89468 350.28246 180.61636 L 350.28246 173.74247 L 349.44852 173.74247 C 349.11454 173.92802 348.51913 174.13201 347.66561 174.35467 C 346.83065 174.57733 346.15448 174.68923 345.63495 174.68923 C 344.37324 174.68923 343.40735 174.5033 342.73938 174.13221 C 342.08996 173.74257 341.63652 173.22267 341.37675 172.57326 C 341.09841 171.92384 340.95066 171.19091 340.93213 170.37451 C 340.9136 169.55811 340.90337 168.6031 340.90337 167.50838 L 340.90337 156.43014 L 350.28246 156.43014 L 350.28246 149.63902 L 340.90337 149.63902 L 340.90337 140.70607 L 330.885 140.70607 z M 268.00971 148.66467 C 262.62885 148.66467 258.42765 150.1413 255.40324 153.09149 C 252.39738 156.04168 250.89287 160.10356 250.89287 165.28031 C 250.89287 170.41996 252.38718 174.47452 255.37448 177.44327 C 258.38034 180.39346 262.59175 181.86836 268.00971 181.86836 C 273.42767 181.86836 277.63109 180.39346 280.61839 177.44327 C 283.62425 174.47452 285.12655 170.41996 285.12655 165.28031 C 285.12655 160.14067 283.63445 156.08782 280.64715 153.11908 C 277.6784 150.15033 273.46478 148.66467 268.00971 148.66467 z M 306.57237 148.66467 C 301.19151 148.66467 296.98809 150.1413 293.96368 153.09149 C 290.95783 156.04168 289.45553 160.10356 289.45553 165.28031 C 289.45553 170.41996 290.94984 174.47452 293.93714 177.44327 C 296.943 180.39346 301.1544 181.86836 306.57237 181.86836 C 311.99033 181.86836 316.19374 180.39346 319.18105 177.44327 C 322.1869 174.47452 323.6892 170.41996 323.6892 165.28031 C 323.6892 160.14067 322.1949 156.08782 319.20759 153.11908 C 316.23885 150.15033 312.02744 148.66467 306.57237 148.66467 z M 268.00971 155.65066 C 268.97455 155.65066 269.87566 155.80947 270.71062 156.1249 C 271.54558 156.44033 272.26035 156.9783 272.85409 157.73904 C 273.44785 158.48122 273.91149 159.4741 274.24547 160.71726 C 274.57945 161.96043 274.7454 163.50031 274.7454 165.33722 C 274.7454 167.32256 274.57945 168.88052 274.24547 170.01236 C 273.93004 171.12564 273.44599 172.08064 272.79658 172.87849 C 272.22139 173.60213 271.51682 174.12202 270.68186 174.43745 C 269.86546 174.73432 269.00294 174.88237 268.09376 174.88237 C 267.03615 174.88237 266.09066 174.71624 265.2557 174.38227 C 264.4393 174.04828 263.73252 173.51935 263.13877 172.79572 C 262.52647 172.03498 262.06283 171.03307 261.74739 169.7899 C 261.43197 168.52818 261.27402 167.04424 261.27402 165.33722 C 261.27402 163.42609 261.45237 161.8393 261.80491 160.57758 C 262.176 159.31586 262.66583 158.32298 263.27813 157.59935 C 263.96465 156.82006 264.67942 156.30016 265.42161 156.0404 C 266.18235 155.78063 267.04487 155.65066 268.00971 155.65066 z M 306.57237 155.65066 C 307.5372 155.65066 308.4361 155.80947 309.27107 156.1249 C 310.10603 156.44033 310.8208 156.9783 311.41454 157.73904 C 312.00829 158.48122 312.47194 159.4741 312.80592 160.71726 C 313.13991 161.96043 313.30806 163.50031 313.30806 165.33722 C 313.30806 167.32256 313.13991 168.88052 312.80592 170.01236 C 312.49049 171.12564 312.00865 172.08064 311.35924 172.87849 C 310.78405 173.60213 310.07949 174.12202 309.24452 174.43745 C 308.42812 174.73432 307.5656 174.88237 306.65642 174.88237 C 305.5988 174.88237 304.65111 174.71624 303.81615 174.38227 C 302.99975 174.04828 302.29519 173.51935 301.70143 172.79572 C 301.08913 172.03498 300.62549 171.03307 300.31005 169.7899 C 299.99463 168.52818 299.83667 167.04424 299.83667 165.33722 C 299.83667 163.42609 300.01282 161.8393 300.36535 160.57758 C 300.73645 159.31586 301.22849 158.32298 301.84079 157.59935 C 302.52732 156.82006 303.24208 156.30016 303.98427 156.0404 C 304.74501 155.78063 305.60752 155.65066 306.57237 155.65066 z M 229.69922 156.34736 C 232.12988 156.34736 233.81853 157.09836 234.76481 158.60129 C 235.71111 160.10422 236.18495 162.24706 236.18495 165.03026 C 236.18495 168.14745 235.53496 170.48524 234.23613 172.04383 C 232.9373 173.60242 230.96116 174.38227 228.30784 174.38227 C 227.39866 174.38227 226.61912 174.33535 225.96971 174.24258 C 225.32029 174.14981 224.63392 173.97465 223.91029 173.71488 L 223.91029 158.01668 C 224.81947 157.4786 225.77515 157.0706 226.7771 156.79228 C 227.77906 156.49541 228.75293 156.34736 229.69922 156.34736 z " />
  </g>
  <path
     class="cls-1"
     d="M336.86,345.17H38.39a9,9,0,0,1-9-9V37.67a9,9,0,0,1,9-9H336.86a9,9,0,0,1,9,9V336.14A9,9,0,0,1,336.86,345.17ZM38.39,34.66a3,3,0,0,0-3,3V336.14a3,3,0,0,0,3,3H336.86a3,3,0,0,0,3-3V37.67a3,3,0,0,0-3-3Z"
     id="path6" />
</svg>
