<?xml version="1.0" encoding="utf-8"?>
<!-- Generator: Adobe Illustrator 25.2.3, SVG Export Plug-In . SVG Version: 6.00 Build 0)  -->
<svg version="1.1" id="Layer_1" xmlns="http://www.w3.org/2000/svg" xmlns:xlink="http://www.w3.org/1999/xlink" x="0px" y="0px"
	 viewBox="0 0 374.5 373.8" style="enable-background:new 0 0 374.5 373.8;" xml:space="preserve">
<style type="text/css">
	.st0{fill:#FFFFFF;}
	.st1{fill:#27B1D4;}
	.st2{enable-background:new    ;}
</style>
<path class="st0" d="M371.5,158.7c1.7,0,3-1.3,3-3c0-1.7-1.3-3-3-3h-25.6V96.4h25.6c1.7,0,3-1.3,3-3c0-1.7-1.3-3-3-3h-25.6V37.7
	c0-5-4-9-9-9h-53.5V3c0-1.7-1.3-3-3-3s-3,1.3-3,3v25.7h-56.3V3c0-1.7-1.3-3-3-3c-1.7,0-3,1.3-3,3v25.7h-56.4V3c0-1.7-1.3-3-3-3
	s-3,1.3-3,3v25.7H96.4V3c0-1.7-1.3-3-3-3c-1.7,0-3,1.3-3,3v25.7h-52c-5,0-9,4-9,9v52.7c-0.1,0-0.2,0-0.3,0H3c-1.7,0-3,1.3-3,3
	c0,1.7,1.3,3,3,3h26.1c0.1,0,0.2,0,0.3,0v56.4c-0.1,0-0.2,0-0.3,0H3c-1.7,0-3,1.3-3,3c0,1.7,1.3,3,3,3h26.1c0.1,0,0.2,0,0.3,0v56.5
	c-0.1,0-0.2,0-0.3,0H3c-1.7,0-3,1.3-3,3c0,1.7,1.3,3,3,3h26.1c0.1,0,0.2,0,0.3,0v56.5c-0.1,0-0.2,0-0.3,0H3c-1.7,0-3,1.3-3,3
	s1.3,3,3,3h26.1c0.1,0,0.2,0,0.3,0v52.7c0,5,4,9,9,9h52v25.6c0,1.7,1.3,3,3,3c1.6,0,3-1.4,3-3v-25.6h56.3v25.6c0,1.7,1.3,3,3,3
	s3-1.4,3-3v-25.6h56.4v25.6c0,1.7,1.3,3,3,3c1.6,0,3-1.4,3-3v-25.6h56.3v25.6c0,1.7,1.3,3,3,3s3-1.4,3-3v-25.6h53.5c5,0,9-4.1,9-9
	v-52.7h25.6c1.7,0,3-1.3,3-3s-1.3-3-3-3h-25.6v-56.4h25.6c1.7,0,3-1.3,3-3c0-1.7-1.3-3-3-3h-25.6v-56.4H371.5z M339.9,336.2
	c0,1.7-1.3,3-3,3H38.4c-1.7,0-3-1.3-3-3V37.7c0-1.7,1.3-3,3-3h298.5c1.7,0,3,1.3,3,3V336.2z"/>
<rect x="57.3" y="57.9" class="st1" width="260" height="260"/>
<g class="st2">
	<path class="st0" d="M111,164.5v41.2h-6.8v-26.6c0-1.1,0.1-2.2,0.2-3.4l-12.5,23.4c-0.6,1.1-1.5,1.7-2.7,1.7h-1.1
		c-1.2,0-2.1-0.6-2.7-1.7l-12.6-23.5c0.1,0.6,0.1,1.2,0.1,1.9c0,0.6,0.1,1.2,0.1,1.7v26.6h-6.8v-41.2H72c0.3,0,0.6,0,0.9,0
		c0.2,0,0.5,0.1,0.7,0.1c0.2,0.1,0.4,0.2,0.5,0.4c0.2,0.2,0.3,0.4,0.5,0.7L87,188.6c0.3,0.6,0.6,1.2,0.9,1.9c0.3,0.6,0.5,1.3,0.8,2
		c0.3-0.7,0.5-1.4,0.8-2s0.6-1.3,0.9-1.9l12.2-22.8c0.2-0.3,0.3-0.5,0.5-0.7s0.4-0.3,0.6-0.4c0.2-0.1,0.4-0.1,0.7-0.1
		c0.2,0,0.5,0,0.9,0h5.7V164.5z"/>
	<path class="st0" d="M148.4,196c0.4,0,0.8,0.2,1.1,0.5l3,3.3c-1.7,2.1-3.7,3.7-6.2,4.8c-2.4,1.1-5.4,1.7-8.8,1.7
		c-3.1,0-5.8-0.5-8.3-1.6s-4.5-2.5-6.3-4.4c-1.7-1.9-3.1-4.1-4-6.7c-0.9-2.6-1.4-5.4-1.4-8.5s0.5-5.9,1.5-8.5s2.4-4.8,4.2-6.7
		c1.8-1.9,3.9-3.3,6.4-4.3s5.2-1.6,8.3-1.6c3,0,5.7,0.5,8,1.5s4.3,2.3,5.9,3.9l-2.6,3.6c-0.2,0.2-0.3,0.4-0.6,0.6
		c-0.2,0.2-0.6,0.3-1,0.3c-0.3,0-0.6-0.1-0.9-0.2c-0.3-0.2-0.6-0.4-1-0.6c-0.4-0.2-0.8-0.5-1.3-0.8s-1-0.5-1.7-0.8
		c-0.6-0.2-1.4-0.4-2.2-0.6c-0.8-0.2-1.8-0.2-2.9-0.2c-1.8,0-3.5,0.3-5.1,1s-2.8,1.6-3.9,2.8c-1.1,1.2-2,2.8-2.6,4.6
		s-0.9,3.8-0.9,6.1s0.3,4.4,1,6.2s1.5,3.3,2.7,4.6c1.1,1.2,2.4,2.2,4,2.8c1.5,0.7,3.2,1,4.9,1c1,0,2-0.1,2.8-0.2
		c0.8-0.1,1.6-0.3,2.3-0.5s1.4-0.6,2-1s1.3-0.9,1.9-1.4c0.2-0.2,0.4-0.3,0.6-0.4S148.2,196,148.4,196z"/>
	<path class="st0" d="M174.4,199.6c1.5,0,2.8-0.2,4-0.7s2.2-1.2,2.9-2.1c0.8-0.9,1.4-2,1.8-3.2c0.4-1.3,0.6-2.7,0.6-4.3v-24.7h7.7
		v24.7c0,2.5-0.4,4.7-1.2,6.8s-1.9,3.9-3.4,5.4s-3.3,2.7-5.4,3.5c-2.1,0.8-4.5,1.3-7.1,1.3c-2.7,0-5-0.4-7.2-1.3
		c-2.1-0.8-3.9-2-5.4-3.5s-2.6-3.3-3.4-5.4c-0.8-2.1-1.2-4.3-1.2-6.8v-24.7h7.7v24.7c0,1.6,0.2,3,0.6,4.3c0.4,1.3,1,2.4,1.9,3.3
		c0.8,0.9,1.8,1.6,3,2.1C171.6,199.3,172.9,199.6,174.4,199.6z"/>
	<path class="st0" d="M205.6,180.1c1.2-1.2,2.5-2.2,3.9-2.9s3.1-1.1,4.9-1.1c1.7,0,3.2,0.3,4.6,1s2.5,1.6,3.5,2.9
		c1,1.2,1.7,2.8,2.2,4.5c0.5,1.8,0.8,3.8,0.8,6c0,2.4-0.3,4.5-0.9,6.5c-0.6,1.9-1.4,3.6-2.5,5s-2.4,2.4-3.9,3.2s-3.2,1.1-5.1,1.1
		c-0.9,0-1.7-0.1-2.5-0.3c-0.7-0.2-1.4-0.4-2.1-0.8c-0.6-0.3-1.2-0.7-1.7-1.2s-1-1-1.5-1.6l-0.3,2c-0.1,0.5-0.3,0.8-0.6,1.1
		s-0.7,0.3-1.1,0.3h-4.6v-42.4h7L205.6,180.1L205.6,180.1z M205.6,198.2c0.8,1,1.7,1.7,2.6,2.1c0.9,0.4,1.9,0.6,3,0.6
		s2.1-0.2,2.9-0.6c0.9-0.4,1.6-1,2.2-1.8s1.1-1.9,1.4-3.2c0.3-1.3,0.5-2.8,0.5-4.6c0-3.2-0.5-5.5-1.6-7s-2.6-2.2-4.6-2.2
		c-1.3,0-2.5,0.3-3.5,0.9c-1,0.6-2,1.5-2.9,2.6L205.6,198.2L205.6,198.2z"/>
	<path class="st0" d="M243.9,176c2.2,0,4.1,0.4,5.9,1.1c1.8,0.7,3.3,1.7,4.6,3s2.2,2.9,2.9,4.7c0.7,1.9,1,3.9,1,6.2s-0.3,4.4-1,6.3
		c-0.7,1.9-1.7,3.4-2.9,4.8c-1.3,1.3-2.8,2.3-4.6,3s-3.7,1.1-5.9,1.1s-4.2-0.4-6-1.1c-1.8-0.7-3.3-1.7-4.6-3s-2.2-2.9-2.9-4.8
		c-0.7-1.9-1-4-1-6.3s0.3-4.4,1-6.2c0.7-1.9,1.7-3.4,2.9-4.7c1.3-1.3,2.8-2.3,4.6-3C239.7,176.4,241.7,176,243.9,176z M243.9,200.8
		c2.4,0,4.2-0.8,5.4-2.5c1.2-1.6,1.8-4,1.8-7.2s-0.6-5.6-1.8-7.2c-1.2-1.7-3-2.5-5.4-2.5c-2.5,0-4.3,0.8-5.5,2.5s-1.8,4.1-1.8,7.2
		c0,3.1,0.6,5.5,1.8,7.2C239.6,199.9,241.4,200.8,243.9,200.8z"/>
	<path class="st0" d="M276.6,176c2.2,0,4.1,0.4,5.9,1.1c1.8,0.7,3.3,1.7,4.6,3c1.3,1.3,2.2,2.9,2.9,4.7c0.7,1.9,1,3.9,1,6.2
		s-0.3,4.4-1,6.3c-0.7,1.9-1.7,3.4-2.9,4.8c-1.3,1.3-2.8,2.3-4.6,3c-1.8,0.7-3.7,1.1-5.9,1.1c-2.2,0-4.2-0.4-6-1.1
		c-1.8-0.7-3.3-1.7-4.6-3c-1.3-1.3-2.2-2.9-2.9-4.8c-0.7-1.9-1-4-1-6.3s0.3-4.4,1-6.2c0.7-1.9,1.7-3.4,2.9-4.7
		c1.3-1.3,2.8-2.3,4.6-3C272.4,176.4,274.4,176,276.6,176z M276.6,200.8c2.4,0,4.2-0.8,5.4-2.5c1.2-1.6,1.8-4,1.8-7.2
		s-0.6-5.6-1.8-7.2c-1.2-1.7-3-2.5-5.4-2.5c-2.5,0-4.3,0.8-5.5,2.5s-1.8,4.1-1.8,7.2c0,3.1,0.6,5.5,1.8,7.2
		C272.3,199.9,274.1,200.8,276.6,200.8z"/>
	<path class="st0" d="M305.6,206.2c-2.5,0-4.5-0.7-5.9-2.2s-2-3.4-2-5.9v-16.3h-3c-0.4,0-0.7-0.1-1-0.4c-0.3-0.2-0.4-0.6-0.4-1.1
		v-2.8l4.7-0.8l1.5-8c0.1-0.4,0.3-0.7,0.5-0.9c0.3-0.2,0.6-0.3,1-0.3h3.6v9.2h7.8v5h-7.8v15.8c0,0.9,0.2,1.6,0.7,2.1
		c0.4,0.5,1.1,0.8,1.8,0.8c0.4,0,0.8-0.1,1.1-0.2c0.3-0.1,0.6-0.2,0.8-0.3c0.2-0.1,0.4-0.2,0.6-0.3s0.3-0.2,0.5-0.2s0.4,0.1,0.5,0.2
		c0.1,0.1,0.3,0.3,0.4,0.5l2.1,3.4c-1,0.9-2.2,1.5-3.5,1.9C308.4,206,307,206.2,305.6,206.2z"/>
</g>
</svg>
