<?xml version="1.0" encoding="utf-8"?>
<!-- Generator: Adobe Illustrator 25.2.3, SVG Export Plug-In . SVG Version: 6.00 Build 0)  -->
<svg version="1.1" id="Layer_1" xmlns="http://www.w3.org/2000/svg" xmlns:xlink="http://www.w3.org/1999/xlink" x="0px" y="0px"
	 viewBox="0 0 79.6 79.5" style="enable-background:new 0 0 79.6 79.5;" xml:space="preserve">
<style type="text/css">
	.st0{opacity:0.8;fill:#11A9D4;enable-background:new    ;}
	.st1{fill:#FFFFFF;}
	.st2{font-family:'Lato-Bold';}
	.st3{font-size:12px;}
</style>
<g id="Layer_1_1_">
	<rect x="12.1" y="12" class="st0" width="55.4" height="55.4"/>
	<path class="st1" d="M71.6,73.4H8.2c-1.1,0-1.9-0.9-1.9-1.9V8c0-1.1,0.9-1.9,1.9-1.9h63.5c1.1,0,1.9,0.9,1.9,1.9v63.5
		C73.6,72.5,72.7,73.4,71.6,73.4z M8.2,7.4C7.8,7.4,7.5,7.7,7.5,8v63.5c0,0.4,0.3,0.6,0.6,0.6h63.5c0.4,0,0.6-0.3,0.6-0.6V8
		c0-0.4-0.3-0.6-0.6-0.6L8.2,7.4z"/>
	<path class="st1" d="M33.1,6.8c-0.4,0-0.6-0.3-0.6-0.6V0.6c0-0.4,0.3-0.6,0.6-0.6c0.4,0,0.6,0.3,0.6,0.6v5.6
		C33.8,6.5,33.5,6.8,33.1,6.8z"/>
	<path class="st1" d="M46.4,6.8c-0.4,0-0.6-0.3-0.6-0.6V0.6C45.7,0.3,46,0,46.4,0C46.7,0,47,0.3,47,0.6v5.6
		C47,6.5,46.7,6.8,46.4,6.8z"/>
	<path class="st1" d="M59.6,6.8c-0.4,0-0.6-0.3-0.6-0.6V0.6C59,0.3,59.3,0,59.6,0c0.4,0,0.6,0.3,0.6,0.6v5.6
		C60.3,6.5,60,6.8,59.6,6.8z"/>
	<path class="st1" d="M19.9,6.8c-0.4,0-0.6-0.3-0.6-0.6V0.6c0-0.4,0.3-0.6,0.6-0.6c0.4,0,0.6,0.3,0.6,0.6v5.6
		C20.5,6.5,20.2,6.8,19.9,6.8z"/>
	<path class="st1" d="M59.6,79.5c-0.4,0-0.6-0.3-0.6-0.6v-5.5c0-0.4,0.3-0.6,0.6-0.6c0.4,0,0.6,0.3,0.6,0.6v5.6
		C60.3,79.2,60,79.5,59.6,79.5z"/>
	<path class="st1" d="M19.9,79.5c-0.4,0-0.6-0.3-0.6-0.6v-5.5c0-0.4,0.3-0.6,0.6-0.6s0.6,0.3,0.6,0.6v5.6
		C20.5,79.2,20.2,79.5,19.9,79.5C19.9,79.5,19.9,79.5,19.9,79.5z"/>
	<path class="st1" d="M6.2,47H0.6C0.3,47,0,46.7,0,46.4c0-0.4,0.3-0.6,0.6-0.6h5.6c0.4,0,0.6,0.3,0.6,0.6C6.8,46.7,6.5,47,6.2,47z"
		/>
	<path class="st1" d="M6.2,33.8H0.6c-0.4,0-0.6-0.3-0.6-0.6c0-0.4,0.3-0.6,0.6-0.6h5.6c0.4,0,0.6,0.3,0.6,0.6
		C6.8,33.5,6.5,33.8,6.2,33.8z"/>
	<path class="st1" d="M6.2,20.5H0.6c-0.4,0-0.6-0.3-0.6-0.6c0-0.4,0.3-0.6,0.6-0.6h5.6c0.4,0,0.6,0.3,0.6,0.6
		C6.8,20.2,6.5,20.5,6.2,20.5z"/>
	<path class="st1" d="M6.2,60.3H0.6C0.3,60.3,0,60,0,59.6C0,59.3,0.3,59,0.6,59h5.6c0.4,0,0.6,0.3,0.6,0.6C6.8,60,6.5,60.3,6.2,60.3
		z"/>
	<path class="st1" d="M79,47h-5.5c-0.4,0-0.6-0.3-0.6-0.6c0-0.4,0.3-0.6,0.6-0.6c0,0,0,0,0,0H79c0.4,0,0.6,0.3,0.6,0.6
		C79.6,46.7,79.4,47,79,47z"/>
	<path class="st1" d="M79,33.8h-5.5c-0.4,0-0.6-0.3-0.6-0.6c0-0.4,0.3-0.6,0.6-0.6c0,0,0,0,0,0H79c0.4,0,0.6,0.3,0.6,0.6
		C79.6,33.5,79.4,33.8,79,33.8z"/>
	<path class="st1" d="M79,20.5h-5.5c-0.4,0-0.6-0.3-0.6-0.6c0-0.4,0.3-0.6,0.6-0.6H79c0.4,0,0.6,0.3,0.6,0.6
		C79.6,20.2,79.4,20.5,79,20.5z"/>
	<path class="st1" d="M79,60.3h-5.5c-0.4,0-0.6-0.3-0.6-0.6c0-0.4,0.3-0.6,0.6-0.6H79c0.4,0,0.6,0.3,0.6,0.6
		C79.6,60,79.4,60.3,79,60.3z"/>
	<path class="st1" d="M46.4,79.5c-0.3,0-0.6-0.3-0.6-0.6c0,0,0,0,0,0v-5.5c0-0.4,0.3-0.6,0.6-0.6s0.6,0.3,0.6,0.6v5.6
		C47,79.2,46.7,79.5,46.4,79.5z"/>
	<path class="st1" d="M33.1,79.5c-0.3,0-0.6-0.3-0.6-0.6c0,0,0,0,0,0v-5.5c0-0.4,0.3-0.6,0.6-0.6s0.6,0.3,0.6,0.6v5.6
		C33.8,79.2,33.5,79.5,33.1,79.5z"/>
	<text transform="matrix(1 0 0 1 14.0199 43.88)" class="st1 st2 st3">MCUboot</text>
</g>
</svg>
