<?xml version="1.0" encoding="UTF-8" standalone="no"?>
<svg
   id="Layer_1"
   data-name="Layer 1"
   viewBox="0 0 374.51 373.8"
   version="1.1"
   sodipodi:docname="TF_Icon_MCUboot.svg"
   inkscape:export-filename="MCUboot.svg"
   inkscape:export-xdpi="96"
   inkscape:export-ydpi="96"
   inkscape:version="1.2.2 (b0a84865, 2022-12-01)"
   xmlns:inkscape="http://www.inkscape.org/namespaces/inkscape"
   xmlns:sodipodi="http://sodipodi.sourceforge.net/DTD/sodipodi-0.dtd"
   xmlns="http://www.w3.org/2000/svg"
   xmlns:svg="http://www.w3.org/2000/svg">
  <sodipodi:namedview
     id="namedview53"
     pagecolor="#ffffff"
     bordercolor="#000000"
     borderopacity="0.25"
     inkscape:showpageshadow="2"
     inkscape:pageopacity="0.0"
     inkscape:pagecheckerboard="0"
     inkscape:deskcolor="#d1d1d1"
     showgrid="false"
     inkscape:zoom="2.7474586"
     inkscape:cx="131.03018"
     inkscape:cy="194.54342"
     inkscape:window-width="1655"
     inkscape:window-height="1205"
     inkscape:window-x="546"
     inkscape:window-y="69"
     inkscape:window-maximized="0"
     inkscape:current-layer="Layer_1" />
  <defs
     id="defs4">
    <style
       id="style2">.cls-1,.cls-3{fill:#fff;}.cls-2{fill:#27b1d4;}.cls-3{font-size:57px;font-family:Lato-Bold, Lato;font-weight:700;letter-spacing:-0.01em;}.cls-4{letter-spacing:-0.02em;}.cls-5{letter-spacing:-0.01em;}.cls-6{letter-spacing:-0.02em;}</style>
  </defs>
  <rect
     class="cls-2"
     x="57.26"
     y="57.9"
     width="260"
     height="260"
     id="rect40"
     style="fill-opacity:1;fill:#27b1d4" />
  <g
     aria-label="MCUboot"
     transform="scale(0.88294814,1.1325693)"
     id="text50"
     style="font-weight:700;font-size:57px;line-height:0;font-family:Lato-Bold, Lato;letter-spacing:-0.01em;fill:#ffffff;stroke-width:0.882948"
     class="cls-3">
    <path
       d="m 118.04915,180.89491 h -10.63184 v -27.74853 l -7.681638,18.00732 h -7.375488 l -7.681641,-18.00732 v 27.74853 H 74.603348 v -41.44189 h 12.413086 l 9.32373,20.79053 9.295896,-20.79053 h 12.41309 z"
       id="path3689" />
    <path
       d="m 146.78628,181.70204 q -4.62012,0 -8.54444,-1.36377 -3.89648,-1.36377 -6.70752,-4.06347 -2.81103,-2.69971 -4.36962,-6.73536 -1.53077,-4.03564 -1.53077,-9.32373 0,-4.92627 1.4751,-8.93408 1.4751,-4.00781 4.28613,-6.87451 2.69971,-2.75537 6.67969,-4.2583 4.00781,-1.50293 8.73926,-1.50293 2.61621,0 4.70361,0.30615 2.11524,0.27832 3.89649,0.75147 1.86474,0.52881 3.36767,1.19677 1.53076,0.64014 2.67188,1.19678 v 10.04736 h -1.22461 q -0.7793,-0.66796 -1.97608,-1.58642 -1.16894,-0.91846 -2.67187,-1.80908 -1.53076,-0.89063 -3.31201,-1.50293 -1.78125,-0.61231 -3.81299,-0.61231 -2.25439,0 -4.28613,0.72364 -2.03174,0.6958 -3.75733,2.33789 -1.64209,1.58642 -2.67187,4.20263 -1.00196,2.61621 -1.00196,6.34571 0,3.89648 1.08545,6.51269 1.11328,2.61621 2.78321,4.11914 1.69775,1.53076 3.78515,2.19873 2.08741,0.64014 4.11914,0.64014 1.94825,0 3.84082,-0.58447 1.92041,-0.58448 3.53467,-1.58643 1.36377,-0.80713 2.53272,-1.72559 1.16894,-0.91845 1.92041,-1.58642 h 1.11328 v 9.9082 q -1.5586,0.6958 -2.97803,1.30811 -1.41943,0.6123 -2.97803,1.05761 -2.03173,0.58448 -3.81298,0.89063 -1.78125,0.30615 -4.89844,0.30615 z"
       id="path3691" />
    <path
       d="m 205.02536,165.89345 q 0,7.68164 -4.67578,11.77295 -4.67578,4.09131 -13.77686,4.09131 -9.10107,0 -13.77685,-4.09131 -4.64795,-4.09131 -4.64795,-11.74512 v -26.46826 h 10.74316 v 25.85596 q 0,4.31396 1.80908,6.42919 1.80909,2.11524 5.87256,2.11524 4.00782,0 5.84473,-2.03174 1.86475,-2.03174 1.86475,-6.51269 v -25.85596 h 10.74316 z"
       id="path3693" />
    <path
       d="m 246.50955,164.83583 q 0,7.37549 -4.09131,12.02344 -4.06347,4.64795 -10.15869,4.64795 -2.61621,0 -4.59228,-0.55664 -1.97608,-0.55664 -3.75733,-1.61426 l -0.41748,1.55859 h -9.60205 v -43.30664 h 10.01953 v 15.30762 q 2.31006,-1.83691 4.70362,-2.97803 2.42138,-1.14111 5.5664,-1.14111 5.92822,0 9.12891,4.28613 3.20068,4.2583 3.20068,11.77295 z m -10.32568,0.19482 q 0,-4.1748 -1.41944,-6.42919 -1.41943,-2.2544 -5.06542,-2.2544 -1.41944,0 -2.92237,0.44531 -1.50293,0.41748 -2.8667,1.22461 v 15.69727 q 1.08545,0.38965 2.05957,0.52881 0.97412,0.13916 2.33789,0.13916 3.97998,0 5.92823,-2.33789 1.94824,-2.33789 1.94824,-7.01368 z"
       id="path3695" />
    <path
       d="m 285.12706,165.28114 q 0,7.70948 -4.50879,12.1626 -4.48096,4.42529 -12.60791,4.42529 -8.12695,0 -12.63574,-4.42529 -4.48096,-4.45312 -4.48096,-12.1626 0,-7.76513 4.50879,-12.19043 4.53662,-4.42529 12.60791,-4.42529 8.18262,0 12.63574,4.45313 4.48096,4.45312 4.48096,12.16259 z m -12.32959,7.59815 q 0.97412,-1.19678 1.44727,-2.8667 0.50097,-1.69776 0.50097,-4.67578 0,-2.75537 -0.50097,-4.62012 -0.50098,-1.86475 -1.39161,-2.97803 -0.89062,-1.14111 -2.14306,-1.61426 -1.25244,-0.47314 -2.69971,-0.47314 -1.44726,0 -2.58838,0.38965 -1.11328,0.38965 -2.14306,1.55859 -0.91846,1.08545 -1.4751,2.97803 -0.52881,1.89258 -0.52881,4.75928 0,2.56054 0.47314,4.45312 0.47315,1.86475 1.39161,3.00586 0.89062,1.08545 2.11523,1.58643 1.25244,0.50097 2.83887,0.50097 1.36377,0 2.58838,-0.44531 1.25244,-0.47314 2.11523,-1.55859 z"
       id="path3697" />
    <path
       d="m 323.68889,165.28114 q 0,7.70948 -4.50879,12.1626 -4.48096,4.42529 -12.60791,4.42529 -8.12695,0 -12.63574,-4.42529 -4.48096,-4.45312 -4.48096,-12.1626 0,-7.76513 4.50879,-12.19043 4.53662,-4.42529 12.60791,-4.42529 8.18262,0 12.63574,4.45313 4.48096,4.45312 4.48096,12.16259 z m -12.32959,7.59815 q 0.97412,-1.19678 1.44726,-2.8667 0.50098,-1.69776 0.50098,-4.67578 0,-2.75537 -0.50098,-4.62012 -0.50097,-1.86475 -1.3916,-2.97803 -0.89062,-1.14111 -2.14306,-1.61426 -1.25245,-0.47314 -2.69971,-0.47314 -1.44727,0 -2.58838,0.38965 -1.11328,0.38965 -2.14307,1.55859 -0.91845,1.08545 -1.47509,2.97803 -0.52881,1.89258 -0.52881,4.75928 0,2.56054 0.47314,4.45312 0.47315,1.86475 1.3916,3.00586 0.89063,1.08545 2.11524,1.58643 1.25244,0.50097 2.83887,0.50097 1.36376,0 2.58837,-0.44531 1.25245,-0.47314 2.11524,-1.55859 z"
       id="path3699" />
    <path
       d="m 350.28294,180.61659 q -1.61425,0.41748 -3.42334,0.64014 -1.80908,0.25049 -4.42529,0.25049 -5.84473,0 -8.71142,-2.36573 -2.83887,-2.36572 -2.83887,-8.09912 v -14.61181 h -4.11914 v -6.79102 h 4.11914 v -8.93408 h 10.01953 v 8.93408 h 9.37939 v 6.79102 h -9.37939 v 11.07715 q 0,1.64209 0.0278,2.86669 0.0278,1.22461 0.44531,2.19874 0.38965,0.97412 1.36377,1.55859 1.00196,0.55664 2.89453,0.55664 0.7793,0 2.03174,-0.33398 1.28028,-0.33399 1.78125,-0.61231 h 0.83496 z"
       id="path3701" />
  </g>
  <path
     class="cls-1"
     d="M336.86,345.17H38.39a9,9,0,0,1-9-9V37.67a9,9,0,0,1,9-9H336.86a9,9,0,0,1,9,9V336.14A9,9,0,0,1,336.86,345.17ZM38.39,34.66a3,3,0,0,0-3,3V336.14a3,3,0,0,0,3,3H336.86a3,3,0,0,0,3-3V37.67a3,3,0,0,0-3-3Z"
     id="path6" />
</svg>
