<?xml version="1.0" encoding="UTF-8" standalone="no"?>
<svg
   id="Layer_1"
   data-name="Layer 1"
   viewBox="0 0 374.51 373.8"
   version="1.1"
   sodipodi:docname="TF_Icon_MCUboot.svg"
   inkscape:export-filename="MCUboot.svg"
   inkscape:export-xdpi="96"
   inkscape:export-ydpi="96"
   inkscape:version="1.2.2 (b0a84865, 2022-12-01)"
   xmlns:inkscape="http://www.inkscape.org/namespaces/inkscape"
   xmlns:sodipodi="http://sodipodi.sourceforge.net/DTD/sodipodi-0.dtd"
   xmlns="http://www.w3.org/2000/svg"
   xmlns:svg="http://www.w3.org/2000/svg">
  <sodipodi:namedview
     id="namedview53"
     pagecolor="#ffffff"
     bordercolor="#000000"
     borderopacity="0.25"
     inkscape:showpageshadow="2"
     inkscape:pageopacity="0.0"
     inkscape:pagecheckerboard="0"
     inkscape:deskcolor="#d1d1d1"
     showgrid="false"
     inkscape:zoom="2.7474586"
     inkscape:cx="142.8593"
     inkscape:cy="196.72726"
     inkscape:window-width="1841"
     inkscape:window-height="1205"
     inkscape:window-x="298"
     inkscape:window-y="25"
     inkscape:window-maximized="0"
     inkscape:current-layer="Layer_1" />
  <defs
     id="defs4">
    <style
       id="style2">.cls-1,.cls-3{fill:#fff;}.cls-2{fill:#27b1d4;}.cls-3{font-size:57px;font-family:Lato-Bold, Lato;font-weight:700;letter-spacing:-0.01em;}.cls-4{letter-spacing:-0.02em;}.cls-5{letter-spacing:-0.01em;}.cls-6{letter-spacing:-0.02em;}</style>
  </defs>
  <g
     id="g1708">
    <path
       class="cls-1"
       d="M336.86,345.17H38.39a9,9,0,0,1-9-9V37.67a9,9,0,0,1,9-9H336.86a9,9,0,0,1,9,9V336.14A9,9,0,0,1,336.86,345.17ZM38.39,34.66a3,3,0,0,0-3,3V336.14a3,3,0,0,0,3,3H336.86a3,3,0,0,0,3-3V37.67a3,3,0,0,0-3-3Z"
       id="path6"
       style="fill:none"
       inkscape:label="path6" />
    <path
       id="rect40"
       style="fill:#27b1d4"
       class="cls-2"
       d="M 57.259998,57.900002 H 317.26 V 317.9 H 57.259998 Z"
       inkscape:label="rect40" />
    <g
       id="g3943">
      <path
         id="path3689"
         style="font-weight:700;font-size:57px;line-height:0;font-family:Lato-Bold, Lato;letter-spacing:-0.01em;fill:#ffffff;stroke-width:0.878978"
         d="M 187.75 155.82812 L 187.75 204.87695 L 196.15234 204.87695 L 196.51758 203.11133 C 197.55667 203.90988 198.65389 204.51917 199.80664 204.93945 C 200.95938 205.35975 202.29805 205.57031 203.82422 205.57031 C 207.37987 205.57031 210.34246 203.81407 212.71289 200.30469 C 215.09955 196.79527 216.29297 192.2563 216.29297 186.6875 C 216.29297 181.01363 215.35931 176.5687 213.49219 173.35352 C 211.62506 170.11729 208.96211 168.5 205.50391 168.5 C 203.66926 168.5 202.04725 168.93138 200.63477 169.79297 C 199.23849 170.65456 197.86516 171.77906 196.51758 173.16602 L 196.51758 155.82812 L 187.75 155.82812 z M 129.05664 157.02539 C 126.29654 157.02539 123.74806 157.59374 121.41016 158.72852 C 119.08844 159.86324 117.13933 161.47035 115.56445 163.55078 C 113.92463 165.71527 112.67495 168.31181 111.81445 171.33789 C 110.95395 174.36397 110.52344 177.73552 110.52344 181.45508 C 110.52344 185.44778 110.97031 188.96858 111.86328 192.01562 C 112.77249 195.06273 114.04768 197.60417 115.6875 199.64258 C 117.32732 201.68097 119.28363 203.21638 121.55664 204.24609 C 123.8459 205.2758 126.3381 205.79102 129.0332 205.79102 C 130.85161 205.79102 132.27927 205.67451 133.31836 205.44336 C 134.35745 205.2122 135.47104 204.87685 136.65625 204.43555 C 137.56546 204.09931 138.4337 203.69864 139.26172 203.23633 C 140.08974 202.77401 140.95798 202.28123 141.86719 201.75586 L 141.86719 190.5332 L 140.89258 190.5332 C 140.45421 191.03755 139.89479 191.63661 139.21289 192.33008 C 138.53098 193.02356 137.79165 193.67574 136.99609 194.28516 C 136.05441 195.04168 135.02457 195.64073 133.9043 196.08203 C 132.80026 196.52334 131.67948 196.74414 130.54297 196.74414 C 129.35776 196.74414 128.15519 196.50092 126.9375 196.01758 C 125.71981 195.51323 124.61734 194.68314 123.62695 193.52734 C 122.6528 192.39256 121.84084 190.83864 121.19141 188.86328 C 120.55821 186.88792 120.24023 184.42835 120.24023 181.48633 C 120.24023 178.67038 120.53269 176.27614 121.11719 174.30078 C 121.71791 172.32542 122.49717 170.73878 123.45508 169.54102 C 124.4617 168.30116 125.55893 167.41794 126.74414 166.89258 C 127.92936 166.34619 129.17904 166.07227 130.49414 166.07227 C 131.67936 166.07227 132.79099 166.30335 133.83008 166.76562 C 134.86917 167.22794 135.83555 167.79628 136.72852 168.46875 C 137.6052 169.14121 138.38451 169.8241 139.06641 170.51758 C 139.76455 171.21106 140.34032 171.81011 140.79492 172.31445 L 141.86719 172.31445 L 141.86719 160.93555 C 141.20151 160.51525 140.42227 160.06341 139.5293 159.58008 C 138.65256 159.07574 137.66983 158.62388 136.58203 158.22461 C 135.54294 157.86736 134.40775 157.58319 133.17383 157.37305 C 131.95614 157.14189 130.58281 157.02539 129.05664 157.02539 z M 65.871094 157.93945 L 65.871094 204.87695 L 74.6875 204.87695 L 74.6875 173.44922 L 81.408203 193.84375 L 87.863281 193.84375 L 94.583984 173.44922 L 94.583984 204.87695 L 103.88672 204.87695 L 103.88672 157.93945 L 93.025391 157.93945 L 84.890625 181.48633 L 76.732422 157.93945 L 65.871094 157.93945 z M 147.72461 157.93945 L 147.72461 187.91797 C 147.72461 193.6969 149.07963 198.12963 151.79102 201.21875 C 154.51859 204.30787 158.53854 205.85352 163.84766 205.85352 C 169.15673 205.85352 173.17477 204.30787 175.90234 201.21875 C 178.62996 198.12963 179.99414 193.68667 179.99414 187.88672 L 179.99414 157.93945 L 170.59375 157.93945 L 170.59375 187.22461 C 170.59375 190.60793 170.04874 193.06555 168.96094 194.59961 C 167.88937 196.13366 166.18557 196.90039 163.84766 196.90039 C 161.47723 196.90039 159.76432 196.10296 158.70898 194.50586 C 157.6537 192.90876 157.125 190.48184 157.125 187.22461 L 157.125 157.93945 L 147.72461 157.93945 z M 290.12305 159.35938 L 290.12305 169.47656 L 286.51953 169.47656 L 286.51953 177.16797 L 290.12305 177.16797 L 290.12305 193.7168 C 290.12305 198.04577 290.95137 201.1044 292.60742 202.89062 C 294.27971 204.67686 296.82094 205.57031 300.23047 205.57031 C 301.75663 205.57031 303.04624 205.47429 304.10156 205.28516 C 305.15689 205.11704 306.15598 204.87577 307.09766 204.56055 L 307.09766 196.77539 L 306.36719 196.77539 C 306.07495 196.98553 305.55545 197.21657 304.80859 197.46875 C 304.07798 197.72092 303.48586 197.84766 303.03125 197.84766 C 301.92722 197.84766 301.08254 197.63708 300.49805 197.2168 C 299.92979 196.7755 299.53199 196.18668 299.30469 195.45117 C 299.06111 194.71566 298.93026 193.88558 298.91406 192.96094 C 298.89786 192.03631 298.89062 190.9547 298.89062 189.71484 L 298.89062 177.16797 L 307.09766 177.16797 L 307.09766 169.47656 L 298.89062 169.47656 L 298.89062 159.35938 L 290.12305 159.35938 z M 235.10742 168.37305 C 230.39905 168.37305 226.72066 170.04542 224.07422 173.38672 C 221.44401 176.72802 220.12891 181.32838 220.12891 187.19141 C 220.12891 193.01239 221.43681 197.60449 224.05078 200.9668 C 226.68099 204.30807 230.36658 205.97852 235.10742 205.97852 C 239.84828 205.97852 243.52471 204.30807 246.13867 200.9668 C 248.76888 197.60449 250.08398 193.01239 250.08398 187.19141 C 250.08398 181.37041 248.77803 176.78028 246.16406 173.41797 C 243.56635 170.05565 239.88076 168.37305 235.10742 168.37305 z M 268.84961 168.37305 C 264.14122 168.37305 260.4648 170.04542 257.81836 173.38672 C 255.18816 176.72802 253.87305 181.32838 253.87305 187.19141 C 253.87305 193.0124 255.179 197.60449 257.79297 200.9668 C 260.42318 204.30808 264.10875 205.97852 268.84961 205.97852 C 273.59046 205.97852 277.26885 204.30808 279.88281 200.9668 C 282.51302 197.60449 283.82812 193.0124 283.82812 187.19141 C 283.82813 181.37041 282.52022 176.78028 279.90625 173.41797 C 277.30852 170.05565 273.62293 168.37305 268.84961 168.37305 z M 235.10742 176.28516 C 235.95169 176.28516 236.73814 176.46503 237.46875 176.82227 C 238.19936 177.17952 238.8242 177.7888 239.34375 178.65039 C 239.8633 179.49097 240.27025 180.61547 240.5625 182.02344 C 240.85474 183.43141 241 185.17543 241 187.25586 C 241 189.5044 240.85474 191.2689 240.5625 192.55078 C 240.28649 193.81165 239.86511 194.89325 239.29688 195.79688 C 238.79356 196.61641 238.17593 197.20525 237.44531 197.5625 C 236.73094 197.89873 235.97525 198.06641 235.17969 198.06641 C 234.25425 198.06641 233.42593 197.87825 232.69531 197.5 C 231.98093 197.12173 231.36525 196.52268 230.8457 195.70312 C 230.30992 194.84155 229.90297 193.7068 229.62695 192.29883 C 229.35095 190.86984 229.21289 189.18918 229.21289 187.25586 C 229.21289 185.09137 229.3673 183.29422 229.67578 181.86523 C 230.0005 180.43627 230.43102 179.31175 230.9668 178.49219 C 231.56752 177.60958 232.19236 177.02077 232.8418 176.72656 C 233.50747 176.43236 234.26316 176.28516 235.10742 176.28516 z M 268.84961 176.28516 C 269.69387 176.28516 270.48227 176.46503 271.21289 176.82227 C 271.9435 177.17952 272.56835 177.7888 273.08789 178.65039 C 273.60744 179.49097 274.01245 180.61547 274.30469 182.02344 C 274.59693 183.43141 274.74414 185.17543 274.74414 187.25586 C 274.74414 189.5044 274.59693 191.2689 274.30469 192.55078 C 274.02868 193.81165 273.60732 194.89325 273.03906 195.79688 C 272.53576 196.61642 271.91812 197.20525 271.1875 197.5625 C 270.47312 197.89873 269.71741 198.06641 268.92188 198.06641 C 267.99643 198.06641 267.17007 197.87825 266.43945 197.5 C 265.72507 197.12173 265.10744 196.52268 264.58789 195.70312 C 264.05211 194.84154 263.64711 193.7068 263.37109 192.29883 C 263.09509 190.86984 262.95703 189.18918 262.95703 187.25586 C 262.95703 185.09137 263.10949 183.29422 263.41797 181.86523 C 263.74269 180.43626 264.1732 179.31175 264.70898 178.49219 C 265.30971 177.60958 265.93456 177.02077 266.58398 176.72656 C 267.24965 176.43236 268.00534 176.28516 268.84961 176.28516 z M 201.58398 177.07422 C 203.71088 177.07422 205.18763 177.92478 206.01562 179.62695 C 206.84366 181.32912 207.25781 183.75607 207.25781 186.9082 C 207.25781 190.43863 206.68925 193.08634 205.55273 194.85156 C 204.41625 196.61677 202.68695 197.5 200.36523 197.5 C 199.56971 197.5 198.88857 197.44687 198.32031 197.3418 C 197.75206 197.23672 197.15078 197.03834 196.51758 196.74414 L 196.51758 178.96484 C 197.31314 178.35542 198.15061 177.89334 199.02734 177.57812 C 199.90408 177.24193 200.75598 177.07422 201.58398 177.07422 z " />
    </g>
  </g>
</svg>
