<svg id="Layer_1" data-name="Layer 1" xmlns="http://www.w3.org/2000/svg" viewBox="0 0 374.51 373.8"><defs><style>.cls-1,.cls-3{fill:#fff;}.cls-2{fill:#27b1d4;}.cls-3{font-size:58.53px;font-family:Lato-Bold, Lato;font-weight:700;}.cls-4{letter-spacing:-0.01em;}.cls-5{letter-spacing:0em;}</style></defs><path class="cls-1" d="M336.86,345.17H38.39a9,9,0,0,1-9-9V37.67a9,9,0,0,1,9-9H336.86a9,9,0,0,1,9,9V336.14A9,9,0,0,1,336.86,345.17ZM38.39,34.66a3,3,0,0,0-3,3V336.14a3,3,0,0,0,3,3H336.86a3,3,0,0,0,3-3V37.67a3,3,0,0,0-3-3Z"/><path class="cls-1" d="M155.72,32.11a3,3,0,0,1-3-3V3a3,3,0,1,1,6,0V29.1A3,3,0,0,1,155.72,32.11Z"/><path class="cls-1" d="M218.08,32.11a3,3,0,0,1-3-3V3a3,3,0,1,1,6,0V29.1A3,3,0,0,1,218.08,32.11Z"/><path class="cls-1" d="M280.44,32.11a3,3,0,0,1-3-3V3a3,3,0,1,1,6,0V29.1A3,3,0,0,1,280.44,32.11Z"/><path class="cls-1" d="M93.36,32.11a3,3,0,0,1-3-3V3a3,3,0,0,1,6,0V29.1A3,3,0,0,1,93.36,32.11Z"/><path class="cls-1" d="M280.44,373.8a3,3,0,0,1-3-3V344.7a3,3,0,0,1,6,0v26.09A3,3,0,0,1,280.44,373.8Z"/><path class="cls-1" d="M93.36,373.8a3,3,0,0,1-3-3V344.7a3,3,0,0,1,6,0v26.09A3,3,0,0,1,93.36,373.8Z"/><path class="cls-1" d="M29.1,221.09H3a3,3,0,0,1,0-6H29.1a3,3,0,0,1,0,6Z"/><path class="cls-1" d="M29.1,158.73H3a3,3,0,1,1,0-6H29.1a3,3,0,1,1,0,6Z"/><path class="cls-1" d="M29.1,96.37H3a3,3,0,0,1,0-6H29.1a3,3,0,0,1,0,6Z"/><path class="cls-1" d="M29.1,283.46H3a3,3,0,0,1,0-6H29.1a3,3,0,0,1,0,6Z"/><path class="cls-1" d="M371.5,221.09H345.41a3,3,0,0,1,0-6H371.5a3,3,0,0,1,0,6Z"/><path class="cls-1" d="M371.5,158.73H345.41a3,3,0,0,1,0-6H371.5a3,3,0,0,1,0,6Z"/><path class="cls-1" d="M371.5,96.37H345.41a3,3,0,1,1,0-6H371.5a3,3,0,0,1,0,6Z"/><path class="cls-1" d="M371.5,283.46H345.41a3,3,0,0,1,0-6H371.5a3,3,0,0,1,0,6Z"/><path class="cls-1" d="M218.08,373.8a3,3,0,0,1-3-3V344.7a3,3,0,0,1,6,0v26.09A3,3,0,0,1,218.08,373.8Z"/><path class="cls-1" d="M155.72,373.8a3,3,0,0,1-3-3V344.7a3,3,0,0,1,6,0v26.09A3,3,0,0,1,155.72,373.8Z"/><rect class="cls-2" x="57.26" y="57.9" width="260" height="260"/><text class="cls-3" transform="translate(70.57 206.74)">T<tspan class="cls-4" x="35.12" y="0">F</tspan><tspan class="cls-5" x="67.4" y="0">-RMM</tspan></text></svg>