<?xml version="1.0" encoding="utf-8"?>
<!-- Generator: Adobe Illustrator 25.1.0, SVG Export Plug-In . SVG Version: 6.00 Build 0)  -->
<svg version="1.1" id="Layer_1" xmlns="http://www.w3.org/2000/svg" xmlns:xlink="http://www.w3.org/1999/xlink" x="0px" y="0px"
	 viewBox="0 0 79.6 79.5" style="enable-background:new 0 0 79.6 79.5;" xml:space="preserve">
<style type="text/css">
	.st0{opacity:0.8;fill:#11A9D4;enable-background:new    ;}
	.st1{fill:#FFFFFF;}
	.st2{enable-background:new    ;}
</style>
<g id="Layer_1_1_">
	<rect x="12.1" y="12" class="st0" width="55.4" height="55.4"/>
	<path class="st1" d="M71.6,73.4H8.2c-1.1,0-1.9-0.9-1.9-1.9V8c0-1.1,0.9-1.9,1.9-1.9h63.5c1.1,0,1.9,0.9,1.9,1.9v63.5
		C73.6,72.5,72.7,73.4,71.6,73.4z M8.2,7.4C7.8,7.4,7.5,7.7,7.5,8v63.5c0,0.4,0.3,0.6,0.6,0.6h63.5c0.4,0,0.6-0.3,0.6-0.6V8
		c0-0.4-0.3-0.6-0.6-0.6H8.2z"/>
	<path class="st1" d="M33.1,6.8c-0.4,0-0.6-0.3-0.6-0.6V0.6c0-0.4,0.3-0.6,0.6-0.6c0.4,0,0.6,0.3,0.6,0.6v5.6
		C33.8,6.5,33.5,6.8,33.1,6.8z"/>
	<path class="st1" d="M46.4,6.8c-0.4,0-0.6-0.3-0.6-0.6V0.6C45.7,0.3,46,0,46.4,0C46.7,0,47,0.3,47,0.6v5.6
		C47,6.5,46.7,6.8,46.4,6.8z"/>
	<path class="st1" d="M59.6,6.8c-0.4,0-0.6-0.3-0.6-0.6V0.6C59,0.3,59.3,0,59.6,0c0.4,0,0.6,0.3,0.6,0.6v5.6
		C60.3,6.5,60,6.8,59.6,6.8z"/>
	<path class="st1" d="M19.9,6.8c-0.4,0-0.6-0.3-0.6-0.6V0.6c0-0.4,0.3-0.6,0.6-0.6c0.4,0,0.6,0.3,0.6,0.6v5.6
		C20.5,6.5,20.2,6.8,19.9,6.8z"/>
	<path class="st1" d="M59.6,79.5c-0.4,0-0.6-0.3-0.6-0.6v-5.5c0-0.4,0.3-0.6,0.6-0.6c0.4,0,0.6,0.3,0.6,0.6V79
		C60.3,79.2,60,79.5,59.6,79.5z"/>
	<path class="st1" d="M19.9,79.5c-0.4,0-0.6-0.3-0.6-0.6v-5.5c0-0.4,0.3-0.6,0.6-0.6s0.6,0.3,0.6,0.6V79
		C20.5,79.2,20.2,79.5,19.9,79.5L19.9,79.5z"/>
	<path class="st1" d="M6.2,47H0.6C0.3,47,0,46.7,0,46.4c0-0.4,0.3-0.6,0.6-0.6h5.6c0.4,0,0.6,0.3,0.6,0.6C6.8,46.7,6.5,47,6.2,47z"
		/>
	<path class="st1" d="M6.2,33.8H0.6c-0.4,0-0.6-0.3-0.6-0.6c0-0.4,0.3-0.6,0.6-0.6h5.6c0.4,0,0.6,0.3,0.6,0.6
		C6.8,33.5,6.5,33.8,6.2,33.8z"/>
	<path class="st1" d="M6.2,20.5H0.6c-0.4,0-0.6-0.3-0.6-0.6c0-0.4,0.3-0.6,0.6-0.6h5.6c0.4,0,0.6,0.3,0.6,0.6
		C6.8,20.2,6.5,20.5,6.2,20.5z"/>
	<path class="st1" d="M6.2,60.3H0.6C0.3,60.3,0,60,0,59.6C0,59.3,0.3,59,0.6,59h5.6c0.4,0,0.6,0.3,0.6,0.6C6.8,60,6.5,60.3,6.2,60.3
		z"/>
	<path class="st1" d="M79,47h-5.5c-0.4,0-0.6-0.3-0.6-0.6c0-0.4,0.3-0.6,0.6-0.6l0,0H79c0.4,0,0.6,0.3,0.6,0.6S79.4,47,79,47z"/>
	<path class="st1" d="M79,33.8h-5.5c-0.4,0-0.6-0.3-0.6-0.6c0-0.4,0.3-0.6,0.6-0.6l0,0H79c0.4,0,0.6,0.3,0.6,0.6S79.4,33.8,79,33.8z
		"/>
	<path class="st1" d="M79,20.5h-5.5c-0.4,0-0.6-0.3-0.6-0.6c0-0.4,0.3-0.6,0.6-0.6H79c0.4,0,0.6,0.3,0.6,0.6S79.4,20.5,79,20.5z"/>
	<path class="st1" d="M79,60.3h-5.5c-0.4,0-0.6-0.3-0.6-0.6c0-0.4,0.3-0.6,0.6-0.6H79c0.4,0,0.6,0.3,0.6,0.6S79.4,60.3,79,60.3z"/>
	<path class="st1" d="M46.4,79.5c-0.3,0-0.6-0.3-0.6-0.6l0,0v-5.5c0-0.4,0.3-0.6,0.6-0.6s0.6,0.3,0.6,0.6V79
		C47,79.2,46.7,79.5,46.4,79.5z"/>
	<path class="st1" d="M33.1,79.5c-0.3,0-0.6-0.3-0.6-0.6l0,0v-5.5c0-0.4,0.3-0.6,0.6-0.6s0.6,0.3,0.6,0.6V79
		C33.8,79.2,33.5,79.5,33.1,79.5z"/>
	<g class="st2">
		<path class="st1" d="M25.6,39.4c0,0.7-0.1,1.3-0.3,1.8c-0.2,0.6-0.5,1-0.9,1.5s-0.9,0.7-1.4,1S21.8,44,21.1,44
			c-0.7,0-1.3-0.1-1.9-0.3s-1-0.5-1.4-1c-0.4-0.4-0.7-0.9-0.9-1.5c-0.2-0.6-0.3-1.2-0.3-1.8s0.1-1.3,0.3-1.8c0.2-0.6,0.5-1,0.9-1.5
			c0.4-0.4,0.9-0.7,1.4-1c0.6-0.2,1.2-0.3,1.9-0.3c0.5,0,0.9,0.1,1.3,0.2s0.8,0.3,1.1,0.4c0.3,0.2,0.6,0.4,0.9,0.7
			c0.3,0.3,0.5,0.6,0.7,0.9s0.3,0.7,0.4,1.1C25.6,38.5,25.6,39,25.6,39.4z M23.9,39.4c0-0.5-0.1-0.9-0.2-1.3s-0.3-0.7-0.6-1
			c-0.2-0.3-0.5-0.5-0.9-0.6c-0.3-0.1-0.7-0.2-1.2-0.2c-0.4,0-0.8,0.1-1.2,0.2c-0.3,0.1-0.6,0.4-0.9,0.6c-0.2,0.3-0.4,0.6-0.6,1
			s-0.2,0.8-0.2,1.3s0.1,0.9,0.2,1.3s0.3,0.7,0.6,1c0.2,0.3,0.5,0.5,0.9,0.6c0.3,0.1,0.7,0.2,1.2,0.2c0.4,0,0.8-0.1,1.2-0.2
			c0.3-0.1,0.6-0.4,0.9-0.6c0.2-0.3,0.4-0.6,0.6-1S23.9,39.9,23.9,39.4z"/>
		<path class="st1" d="M28.2,38.4c0.3-0.3,0.6-0.5,0.9-0.7s0.7-0.3,1.2-0.3c0.3,0,0.7,0.1,1,0.2c0.3,0.1,0.5,0.4,0.7,0.6
			c0.2,0.3,0.4,0.6,0.5,1c0.1,0.4,0.2,0.9,0.2,1.4c0,0.5-0.1,0.9-0.2,1.3c-0.1,0.4-0.3,0.8-0.5,1.1s-0.5,0.5-0.9,0.7
			c-0.3,0.2-0.7,0.3-1.1,0.3c-0.4,0-0.7-0.1-0.9-0.2c-0.3-0.1-0.5-0.3-0.7-0.5V46h-1.5v-8.4h0.9c0.2,0,0.3,0.1,0.4,0.3L28.2,38.4z
			 M28.3,42.2c0.2,0.2,0.4,0.4,0.6,0.4s0.4,0.1,0.7,0.1c0.2,0,0.4,0,0.6-0.1s0.3-0.2,0.5-0.4s0.2-0.4,0.3-0.7s0.1-0.6,0.1-1
			c0-0.4,0-0.7-0.1-0.9c-0.1-0.3-0.1-0.5-0.3-0.6c-0.1-0.2-0.2-0.3-0.4-0.4s-0.3-0.1-0.5-0.1c-0.3,0-0.6,0.1-0.8,0.2
			c-0.2,0.1-0.4,0.3-0.6,0.6V42.2z"/>
		<path class="st1" d="M35,40.9c0,0.3,0.1,0.6,0.2,0.8c0.1,0.2,0.2,0.4,0.4,0.6c0.1,0.2,0.3,0.3,0.5,0.3c0.2,0.1,0.4,0.1,0.7,0.1
			s0.5,0,0.6-0.1s0.3-0.1,0.5-0.2s0.3-0.1,0.4-0.2c0.1-0.1,0.2-0.1,0.3-0.1c0.1,0,0.2,0,0.3,0.1l0.4,0.6c-0.2,0.2-0.4,0.4-0.6,0.5
			c-0.2,0.1-0.4,0.2-0.7,0.3c-0.2,0.1-0.5,0.1-0.7,0.2c-0.2,0-0.5,0-0.7,0c-0.4,0-0.9-0.1-1.2-0.2c-0.4-0.1-0.7-0.4-1-0.7
			c-0.3-0.3-0.5-0.6-0.7-1.1s-0.2-0.9-0.2-1.5c0-0.4,0.1-0.8,0.2-1.2c0.1-0.4,0.3-0.7,0.6-1c0.3-0.3,0.6-0.5,1-0.7
			c0.4-0.2,0.8-0.2,1.3-0.2c0.4,0,0.8,0.1,1.1,0.2c0.3,0.1,0.6,0.3,0.9,0.6c0.2,0.2,0.4,0.5,0.6,0.9c0.1,0.4,0.2,0.8,0.2,1.2
			c0,0.2,0,0.4-0.1,0.5c0,0.1-0.1,0.1-0.3,0.1H35z M37.9,40c0-0.2,0-0.4-0.1-0.6s-0.1-0.3-0.3-0.5c-0.1-0.1-0.3-0.2-0.4-0.3
			c-0.2-0.1-0.4-0.1-0.6-0.1c-0.4,0-0.8,0.1-1,0.4c-0.3,0.3-0.4,0.6-0.5,1.1H37.9z"/>
		<path class="st1" d="M41.9,38.3c0.1-0.1,0.3-0.2,0.4-0.4s0.3-0.2,0.5-0.3c0.2-0.1,0.3-0.1,0.5-0.2c0.2,0,0.4-0.1,0.6-0.1
			c0.3,0,0.7,0.1,0.9,0.2c0.3,0.1,0.5,0.3,0.7,0.5s0.3,0.5,0.4,0.8c0.1,0.3,0.1,0.6,0.1,1v4h-1.5v-4c0-0.4-0.1-0.7-0.3-0.9
			c-0.2-0.2-0.4-0.3-0.8-0.3c-0.3,0-0.5,0.1-0.7,0.2c-0.2,0.1-0.5,0.3-0.7,0.5v4.6h-1.5v-6.4h0.9c0.2,0,0.3,0.1,0.4,0.3L41.9,38.3z"
			/>
		<path class="st1" d="M56.8,41.8c0.1,0,0.2,0,0.2,0.1l0.7,0.7c-0.4,0.5-0.8,0.8-1.3,1c-0.5,0.2-1.2,0.4-1.9,0.4
			c-0.7,0-1.3-0.1-1.8-0.3c-0.5-0.2-1-0.5-1.4-0.9s-0.7-0.9-0.9-1.5c-0.2-0.6-0.3-1.2-0.3-1.8c0-0.7,0.1-1.3,0.3-1.9
			c0.2-0.6,0.5-1,0.9-1.4c0.4-0.4,0.9-0.7,1.4-0.9c0.5-0.2,1.1-0.3,1.8-0.3c0.7,0,1.2,0.1,1.7,0.3c0.5,0.2,0.9,0.5,1.3,0.8l-0.6,0.8
			c0,0-0.1,0.1-0.1,0.1c-0.1,0-0.1,0.1-0.2,0.1c-0.1,0-0.1,0-0.2-0.1c-0.1,0-0.1-0.1-0.2-0.1c-0.1-0.1-0.2-0.1-0.3-0.2
			c-0.1-0.1-0.2-0.1-0.4-0.2s-0.3-0.1-0.5-0.1s-0.4-0.1-0.6-0.1c-0.4,0-0.8,0.1-1.1,0.2c-0.3,0.1-0.6,0.3-0.9,0.6
			c-0.2,0.3-0.4,0.6-0.6,1c-0.1,0.4-0.2,0.8-0.2,1.3c0,0.5,0.1,1,0.2,1.3c0.1,0.4,0.3,0.7,0.6,1s0.5,0.5,0.9,0.6
			c0.3,0.1,0.7,0.2,1.1,0.2c0.2,0,0.4,0,0.6,0c0.2,0,0.4-0.1,0.5-0.1s0.3-0.1,0.4-0.2c0.1-0.1,0.3-0.2,0.4-0.3c0,0,0.1-0.1,0.1-0.1
			C56.7,41.8,56.8,41.8,56.8,41.8z"/>
		<path class="st1" d="M60.6,43.9h-1.7v-9h1.7V43.9z"/>
	</g>
</g>
</svg>
